<svg version="1.1" xmlns="http://www.w3.org/2000/svg" style="display: block;" viewBox="0 0 2048 2048" width="1024" height="1024">
<path transform="translate(0,0)" fill="rgb(254,254,252)" d="M 0 0 L 2048 0 L 2048 2048 L 0 2048 L 0 0 z"/>
<path transform="translate(0,0)" fill="rgb(51,55,107)" d="M 934.23 113.5 L 951.621 113.411 L 1332.38 113.742 L 1444.62 113.948 C 1507.99 113.916 1556.41 113.679 1618.42 130.776 C 1688.58 150.12 1754.08 189.733 1805.54 240.88 C 1864.47 299.447 1901.88 368.007 1921.36 448.506 C 1937.42 514.827 1933.78 581.892 1933.61 649.541 L 1933.63 815.798 L 1933.75 1238.64 L 1933.85 1422.51 C 1933.71 1468.89 1934.83 1515.29 1928.9 1561.39 C 1917.24 1651.86 1872.17 1741.45 1807.93 1805.93 C 1735.37 1877.49 1640.13 1921.54 1538.61 1930.48 C 1485.44 1935.35 1427.62 1932.93 1374 1933 L 1117.9 1932.98 L 752.365 1933.01 L 610.478 1932.84 C 577.565 1932.84 544.246 1934.11 511.429 1931.31 C 405.61 1922.3 312.935 1877.18 237.733 1802.58 C 183.476 1748.76 143.355 1673.33 126.261 1599.12 C 112.464 1539.22 115.279 1479.79 115.303 1418.83 L 114.949 1261.51 L 114.874 701.503 L 114.741 595.846 C 114.689 524.172 116.35 467.564 140.951 399.382 C 150.515 372.875 161.528 348.98 176.287 324.898 C 194.094 295.845 212.965 270.082 237.087 245.854 C 311.826 170.408 410.982 124.031 516.799 115.03 C 539.218 113.16 561.827 113.718 584.305 113.73 L 677.273 113.776 L 934.23 113.5 z"/>
<path transform="translate(0,0)" fill="rgb(254,254,252)" d="M 534.552 145.425 C 558.131 144.293 581.968 145.136 605.583 145.121 L 737.691 144.993 L 1152.48 145.01 L 1396.54 145.048 C 1452.73 145.007 1514.55 141.148 1569.88 151.287 C 1640.6 164.247 1710.81 196.422 1764.95 244.135 C 1846.15 315.033 1895.36 415.663 1901.45 523.288 C 1903.1 549.979 1902.59 577.003 1902.68 603.744 L 1902.9 730.921 L 1902.94 1115.42 L 1902.95 1381.65 C 1903 1444.07 1907.08 1515.09 1895.53 1576.14 C 1882.37 1645.69 1848.65 1714.97 1801.62 1767.83 C 1725.22 1853.69 1626.98 1895.2 1513.25 1901.62 C 1489.79 1902.67 1466.05 1901.94 1442.56 1901.92 L 1321.8 1901.99 L 916.061 1901.92 L 653.983 1902.1 C 599.119 1902.14 533.066 1905.97 479.587 1896.28 C 408.536 1883.4 340.205 1853.28 285.321 1806.06 C 202.012 1734.38 154.981 1638.52 146.927 1529.18 C 142.097 1463.61 145.994 1396.78 145.871 1331.01 L 145.123 947.468 L 145.061 664.355 L 145.074 581.76 C 145.11 545.991 145.104 510.647 151.544 475.313 C 163.673 406.526 193.847 342.192 238.982 288.885 C 297.211 220.073 376.582 172.474 464.708 153.514 C 487.622 148.787 511.264 147.118 534.552 145.425 z"/>
<path transform="translate(0,0)" fill="rgb(51,55,107)" d="M 1276.8 243.476 C 1278.83 243.349 1279.55 243.014 1281.4 243.959 C 1222.39 258.918 1159.09 283.41 1103.99 309.417 C 924.337 392.236 785.776 544.147 719.786 730.643 C 657.815 901.708 666.577 1090.42 744.132 1255 C 821.291 1417.67 956.938 1536.27 1126.21 1596.4 C 1232.69 1634.23 1364.72 1647.85 1476.24 1628.96 C 1525.26 1620.65 1573.48 1605.56 1619.51 1586.96 C 1637.55 1579.67 1655.77 1571.43 1672.88 1562.14 C 1687.77 1554.04 1702.32 1544.72 1717.65 1537.52 L 1718.76 1537.02 C 1705.63 1549.3 1690.31 1558.61 1676.61 1570.17 C 1653.74 1589.47 1631.55 1609.9 1607.73 1628.05 C 1541.27 1678.17 1468.27 1718.97 1390.75 1749.3 C 1367.85 1757.31 1344.95 1765.54 1321.64 1772.26 C 1251.26 1792.07 1178.68 1802.93 1105.59 1804.6 C 909.879 1810.56 704.03 1751.24 559.374 1614.67 C 401.776 1465.02 310.008 1258.94 304.221 1041.69 C 299.262 851.768 368.853 686.901 498.863 550.138 C 617.043 425.819 782.783 336.368 947.268 290.476 C 1054.74 261.215 1165.43 245.428 1276.8 243.476 z"/>
<path transform="translate(0,0)" fill="rgb(254,254,252)" d="M 612.008 477.291 C 627.326 465.359 643.752 454.718 659.917 443.97 C 776.599 366.392 907.586 315.682 1043.75 284.443 C 1094.82 272.726 1144.98 263.627 1197.15 258.864 C 1160.01 273.164 1121.74 284.134 1085.65 301.134 C 917.646 380.285 796.671 511.655 721.506 680.741 C 646.695 850.974 642.376 1043.91 709.495 1217.32 C 726.447 1261.12 747.65 1307.11 775.311 1345.26 C 764.11 1359.73 749.449 1370.25 730.922 1372.75 C 710 1375.58 690.342 1367.62 674.077 1354.88 C 669.82 1351.55 665.686 1346.38 660.583 1344.56 L 658.872 1345.35 C 658.362 1348.63 660.154 1351.22 661.988 1353.76 C 674.628 1371.26 693.124 1383.22 714.552 1386.57 C 732.742 1389.41 753.434 1386.15 768.505 1375.11 C 774.997 1370.36 779.684 1364.5 784.418 1358.1 C 870.956 1483.85 998.061 1576.07 1144.46 1619.32 C 1174.19 1628.18 1204.49 1634.39 1235.01 1639.84 C 1365.54 1663.15 1498.1 1650.55 1619.26 1595.87 C 1487.58 1698.14 1350.68 1760.92 1184.24 1780.75 C 1116.43 1789.12 1047.84 1789.05 980.047 1780.54 C 969.16 1779.2 958.294 1777.69 947.454 1776.01 C 940.291 1775.06 933.152 1773.93 926.046 1772.62 C 795.581 1748.67 683.96 1696.78 583.634 1610.15 C 539.859 1572.68 501.042 1529.79 468.122 1482.5 C 355.203 1318.44 297.865 1097.55 334.365 900.228 C 362.424 754.676 438.705 622.822 550.899 525.943 C 570.336 508.826 590.663 491.978 612.008 477.291 z"/>
<path transform="translate(0,0)" fill="rgb(203,201,202)" d="M 612.008 477.291 C 611.91 477.553 611.819 477.818 611.714 478.077 C 606.84 490.084 563.994 539.153 552.592 554.561 C 536.809 575.889 523.219 599.002 510.622 622.325 C 480.456 678.177 457.851 740.305 449.866 803.49 C 446.202 832.488 447.125 861.01 448.599 890.12 C 453.155 980.146 470.648 1066.91 495.833 1153.28 C 506.376 1189.44 517.889 1225.67 531.921 1260.64 C 598.404 1426.31 693.647 1590.63 835.027 1703.31 C 851.695 1716.59 868.986 1729.55 887.245 1740.58 C 895.522 1745.58 945.187 1772.95 947.454 1776.01 C 940.291 1775.06 933.152 1773.93 926.046 1772.62 C 795.581 1748.67 683.96 1696.78 583.634 1610.15 C 539.859 1572.68 501.042 1529.79 468.122 1482.5 C 355.203 1318.44 297.865 1097.55 334.365 900.228 C 362.424 754.676 438.705 622.822 550.899 525.943 C 570.336 508.826 590.663 491.978 612.008 477.291 z"/>
<path transform="translate(0,0)" fill="rgb(51,55,107)" d="M 641.043 1151.69 C 644.269 1151.78 646.16 1151.99 649.001 1153.57 C 654.304 1160.03 647.566 1167.63 649.51 1175 C 654.184 1180.52 662.353 1177.34 668.878 1178.33 C 671.824 1178.78 674.56 1180.47 675.908 1183.22 C 677.12 1185.7 676.419 1186.78 675.445 1189.06 C 672.664 1191.55 670.098 1192.98 666.306 1193.36 C 657.068 1194.28 651.133 1189.8 644.464 1184.27 C 640.722 1190.67 635.958 1196.4 631.389 1202.22 C 637.631 1203.71 645.288 1205.72 649.034 1211.28 C 649.251 1213.72 649.374 1214.79 647.769 1216.89 C 646.261 1218.87 643.948 1220.35 641.434 1220.48 C 634.919 1220.83 627.705 1214.47 623.199 1210.37 L 622.524 1209.75 L 620.495 1210.92 C 607.144 1219.67 583.772 1228.37 567.621 1226.5 C 564.524 1226.14 563.237 1225.2 561.318 1222.83 C 562.531 1217.68 571.326 1216.28 575.967 1214.89 C 599.724 1207.79 618.708 1194.99 630.649 1172.97 C 634.429 1166 636.777 1158.37 641.043 1151.69 z"/>
<path transform="translate(0,0)" fill="rgb(51,55,107)" d="M 605.81 1013.49 C 608.242 1014.4 609.569 1015.47 610.738 1017.88 C 616.707 1030.17 612.045 1051.52 607.438 1063.69 C 597.346 1090.36 580.325 1109.87 554.321 1121.53 C 552.986 1121.68 551.808 1121.48 550.48 1121.33 L 549.298 1119.56 C 551.142 1111.83 563.624 1103.42 568.707 1097.21 C 573.721 1091.09 578.457 1084.42 582.594 1077.67 C 589.709 1065.93 595.235 1053.29 599.029 1040.1 C 601.327 1031.99 601.12 1020.34 605.81 1013.49 z"/>
<path transform="translate(0,0)" fill="rgb(51,55,107)" d="M 1344.18 565.137 C 1348.46 564.904 1352.86 564.541 1357.14 564.742 C 1372.73 565.513 1387.33 572.61 1397.57 584.392 C 1407.9 596.175 1412.47 612.281 1411.06 627.763 C 1409.22 648.012 1398.83 666.628 1380.71 676.551 C 1368.06 683.478 1355.92 687.168 1344.55 696.584 C 1371.14 715.589 1393.9 750.494 1412.92 776.828 C 1418.47 784.512 1423.67 793.199 1429.98 800.211 C 1434.77 805.546 1441.55 809.833 1447.14 814.388 C 1456.08 821.743 1464.74 829.447 1473.08 837.483 C 1511.17 874.191 1566.21 942.188 1586.43 991.241 C 1588.07 995.224 1590.64 1001.03 1588.68 1005.19 C 1581.99 1019.35 1493.78 1080.32 1476.33 1085.6 C 1475.76 1085.77 1474.29 1086.18 1473.65 1086.24 C 1469.04 1086.67 1466.01 1083.27 1463.43 1079.84 C 1457.73 1072.28 1454.35 1063.5 1448.06 1056.2 C 1433.52 1039.31 1395.3 1018.49 1375.16 1007.57 C 1353.19 1052.18 1334.67 1098.54 1316.99 1144.99 C 1309.55 1164.53 1301.72 1183.96 1295.03 1203.77 C 1288.28 1224.27 1281.69 1244.82 1275.25 1265.41 C 1271.44 1278.02 1268.78 1292.09 1263.15 1303.93 C 1261.78 1306.8 1260 1309.24 1257.41 1311.12 C 1247.85 1318.05 1232.05 1316.25 1220.76 1317.89 C 1212.33 1319.11 1204.33 1320.87 1196.27 1323.6 C 1169.84 1332.45 1144.24 1343.59 1119.76 1356.91 C 1104.08 1365.33 1087.94 1377.05 1071.06 1382.62 C 1059.84 1386.32 1037.41 1371.46 1027.04 1366.08 L 1007.89 1356.4 C 990.467 1347.45 973.405 1337.73 956.143 1328.47 C 944.151 1322.04 931.256 1316.13 919.981 1308.51 C 915.285 1305.33 910.815 1301.78 907.292 1297.29 C 904.883 1294.23 902.627 1290.69 902.003 1286.79 C 900.059 1274.63 900.988 1261.22 900.747 1248.89 C 900.329 1227.58 898.716 1206.44 894.653 1185.48 C 891.947 1171.52 888.653 1157.5 883.6 1144.2 C 879.319 1132.92 873.727 1122.18 870.036 1110.67 C 874.984 1099.11 883.308 1087.87 890.104 1077.28 C 904.333 1055.11 918.984 1033.32 933.566 1011.4 C 947.88 989.874 961.216 967.763 975.255 946.072 C 1000.05 907.755 1025.43 869.366 1047.85 829.601 C 1021.68 819.179 984.478 813.217 956.291 810.436 C 948.451 809.663 933.162 810.636 926.8 808.596 C 924.708 807.926 923.765 807.145 922.886 805.089 C 921.437 801.702 920.472 696.813 921.026 685.86 C 921.295 680.555 921.461 674.059 923.939 669.282 C 925.295 666.668 927.611 665.536 930.335 664.686 C 940.129 661.633 951.54 661.532 961.755 660.607 C 1016.86 655.62 1070.87 658.303 1125.65 665.83 C 1146.52 668.698 1167.96 674.567 1188.89 675.831 C 1199.48 676.471 1210.12 674.791 1220.64 673.722 C 1251.16 670.619 1287.94 666.431 1316.2 680.626 C 1322.72 672.618 1329.58 665.01 1338.33 659.38 C 1351.5 650.907 1368.66 650.461 1376.38 634.832 C 1379.74 628.033 1380.56 619.811 1377.93 612.632 C 1375.28 605.39 1369.2 599.409 1362.1 596.487 C 1335.48 585.521 1328.52 615.993 1318.13 619.43 C 1315.65 620.25 1313.35 620.29 1311.03 618.944 C 1307.8 617.073 1305.81 613.417 1305.08 609.867 C 1303.46 602.011 1306.57 593.534 1310.74 586.966 C 1318.61 574.593 1330.39 568.503 1344.18 565.137 z"/>
<path transform="translate(0,0)" fill="rgb(254,254,252)" d="M 1017.88 672.451 C 1073.23 670.706 1126.94 677.737 1181.38 686.604 C 1166.82 713.658 1161.08 745.738 1166.95 776.046 C 1173.46 808.516 1192.71 837.023 1220.4 855.186 C 1251.08 875.539 1289.09 884.216 1325.38 876.747 C 1368.86 867.799 1398.16 843.971 1422.12 807.715 C 1436.32 822.637 1452.47 835.824 1466.91 850.643 C 1500.67 885.294 1547.07 947.661 1565.71 991.578 C 1541.05 999.272 1487.65 1031.54 1467.74 1049 C 1440.31 1023.34 1415.9 1008.73 1379.16 999.304 C 1386.5 981.654 1395.2 964.496 1403.38 947.221 C 1413.36 926.132 1423.05 904.888 1434.18 884.368 C 1441.11 871.601 1449.13 859.479 1456.11 846.743 C 1415.78 878.428 1383.82 945.096 1361.14 990.632 C 1347.4 1018.23 1333.81 1046.07 1321.84 1074.48 C 1310.59 1101.21 1300.67 1128.62 1290.37 1155.73 C 1277.05 1191.51 1265.68 1228.09 1254.52 1264.59 C 1218.06 1245.94 1179.88 1241.8 1140.46 1254.36 C 1093.74 1269.24 1054.1 1305.81 1031.67 1348.96 C 1008.26 1332.2 981.541 1320.52 956.22 1307 C 976.863 1256.66 988.195 1204.52 967.644 1152.03 C 955.834 1121.86 937.407 1098.79 907.355 1085.79 C 952.291 1022.28 994.266 955.8 1034.28 889.12 C 1049.57 863.659 1065.3 838.352 1079.77 812.427 C 1099.59 776.901 1116.9 740.18 1136.24 704.447 C 1119.1 719.823 1105.91 742.281 1093.14 761.342 C 1079.39 781.829 1065.75 802.385 1052.21 823.009 C 1022.22 808.594 990.024 799.314 956.962 795.556 C 959.532 755.445 959.525 717.17 954.736 677.228 C 975.707 674.757 996.772 673.163 1017.88 672.451 z"/>
<path transform="translate(0,0)" fill="rgb(51,55,107)" d="M 1217.72 880.113 C 1220.16 880.096 1222.36 880.376 1224.69 881.098 C 1229.04 882.447 1232.88 885.352 1234.76 889.566 C 1236.44 893.311 1236.3 897.608 1234.78 901.38 C 1232.4 907.301 1228.28 909.22 1222.68 911.607 C 1218.62 911.575 1214.66 911.289 1211.04 909.303 C 1207.09 907.136 1203.97 903.36 1202.86 898.962 C 1201.91 895.258 1202.51 891.325 1204.54 888.081 C 1207.66 883.098 1212.28 881.491 1217.72 880.113 z"/>
<path transform="translate(0,0)" fill="rgb(254,254,252)" d="M 1219.51 890.517 C 1219.93 890.672 1220.37 890.771 1220.76 890.983 C 1223.18 892.301 1223.64 893.126 1224.64 895.53 C 1224.22 898.744 1223.27 900.217 1221.38 902.699 C 1218.3 901.567 1216.57 900.933 1214.93 897.987 C 1215.39 894.57 1217.28 892.923 1219.51 890.517 z"/>
<path transform="translate(0,0)" fill="rgb(51,55,107)" d="M 1186.88 923.622 C 1192.5 921.883 1198.62 923.341 1202.85 927.426 C 1207.08 931.511 1208.75 937.575 1207.2 943.249 C 1205.66 948.923 1201.15 953.307 1195.43 954.689 C 1186.97 956.734 1178.42 951.692 1176.11 943.3 C 1173.8 934.908 1178.57 926.197 1186.88 923.622 z"/>
<path transform="translate(0,0)" fill="rgb(254,254,252)" d="M 1190.46 934.645 C 1192.77 933.578 1195.5 934.565 1196.6 936.86 C 1197.69 939.154 1196.73 941.899 1194.44 943.013 C 1192.95 943.744 1191.17 943.615 1189.8 942.674 C 1188.42 941.733 1187.66 940.126 1187.79 938.465 C 1187.93 936.804 1188.95 935.345 1190.46 934.645 z"/>
<path transform="translate(0,0)" fill="rgb(51,55,107)" d="M 1163.98 966.549 C 1172.43 964.469 1181 969.487 1183.32 977.875 C 1185.64 986.262 1180.87 994.974 1172.56 997.533 C 1166.96 999.255 1160.87 997.8 1156.66 993.734 C 1152.45 989.668 1150.78 983.634 1152.3 977.981 C 1153.82 972.328 1158.3 967.949 1163.98 966.549 z"/>
<path transform="translate(0,0)" fill="rgb(254,254,252)" d="M 1167.39 977.126 C 1169.87 976.722 1172.24 978.309 1172.82 980.758 C 1173.39 983.206 1171.98 985.683 1169.57 986.427 C 1167.86 986.956 1166 986.488 1164.75 985.211 C 1163.49 983.935 1163.05 982.065 1163.61 980.363 C 1164.16 978.661 1165.62 977.412 1167.39 977.126 z"/>
<path transform="translate(0,0)" fill="rgb(203,201,202)" d="M 1253.28 680.463 C 1266.12 680.21 1279.18 680.311 1291.87 682.531 C 1331.3 689.43 1354.32 714.911 1377.83 744.934 C 1391.7 762.639 1404.57 780.946 1417.45 799.372 C 1414.57 803.151 1411.5 806.777 1408.25 810.235 C 1379.82 840.208 1344.68 862.371 1302.39 863.603 C 1269.65 864.558 1238.06 853.083 1214.31 830.387 C 1191.16 808.277 1179.89 776.788 1179.19 745.106 C 1178.9 731.903 1182.08 697.969 1191.59 688.016 L 1190 690.159 L 1191.78 689.183 C 1193.1 693.76 1188.69 703.963 1187.22 708.412 C 1185.46 715.056 1184.22 721.831 1183.54 728.672 C 1180.62 760.111 1187.87 792.92 1208.37 817.525 C 1228.8 841.759 1258.02 856.885 1289.61 859.574 C 1328.98 863.137 1362.38 848.044 1392.18 823.195 C 1381.15 810.386 1368.36 798.844 1356.68 786.594 C 1338.2 767.212 1320.32 747.127 1302.48 727.148 C 1289.08 726.721 1275.53 725.093 1262.15 724.012 L 1192.22 718.442 C 1193.17 707.358 1194.62 697.011 1197.65 686.28 C 1216.18 682.924 1234.5 681.286 1253.28 680.463 z"/>
<path transform="translate(0,0)" fill="rgb(254,254,252)" d="M 1198.37 731.248 C 1210.14 737.137 1220.32 747.945 1231.1 755.676 C 1259.44 776.014 1288.93 790.195 1322.01 801.201 C 1335.41 805.66 1357.84 807.297 1369.1 813.801 C 1371.93 815.433 1373.7 817.899 1375.55 820.509 C 1370.23 823.155 1365.05 826.088 1359.83 828.93 C 1340.2 839.147 1319.41 846.373 1296.99 845.112 C 1270.27 843.609 1241.57 831.249 1223.63 811.128 C 1205.14 790.39 1196.82 758.604 1198.37 731.248 z"/>
<path transform="translate(0,0)" fill="rgb(203,201,202)" d="M 1347.32 573.282 C 1360.56 572.8 1372.96 575.358 1383.86 583.387 C 1394.66 591.339 1401.28 604.278 1402.8 617.488 C 1403.81 626.336 1402.24 635.234 1398.88 643.436 C 1385.26 676.639 1357.42 668.57 1339.48 691.237 L 1338.55 692.43 L 1323.89 683.906 C 1329.36 677.787 1335.38 672.662 1342.01 667.859 C 1352.94 660.954 1366.66 658.732 1375.91 649.212 C 1383.7 641.092 1387.81 630.127 1387.28 618.887 C 1386.91 609.855 1382.81 601.38 1375.97 595.476 C 1368.25 588.806 1358.17 586.51 1348.16 587.274 C 1335.8 588.215 1330.25 594.83 1322.52 603.433 C 1320.17 606.038 1317.12 610.021 1313.38 610.219 L 1312.32 609.098 C 1311.47 602.155 1314.87 595.605 1318.6 589.931 C 1325.4 579.559 1335.6 575.477 1347.32 573.282 z"/>
<path transform="translate(0,0)" fill="rgb(254,254,252)" d="M 1220.07 730.884 C 1245.34 730.816 1272.41 733.426 1297.51 736.53 C 1307.65 746.26 1317.03 757.213 1326.63 767.507 C 1335.22 776.729 1344.87 785.886 1352.41 795.949 C 1337.29 791.037 1321.78 786.705 1306.94 781.018 C 1276.82 769.473 1244.49 751.958 1220.07 730.884 z"/>
<path transform="translate(0,0)" fill="rgb(254,254,252)" d="M 1172.56 1287.36 C 1192.05 1285.59 1209.11 1287.85 1227.9 1293.17 C 1180 1300.88 1137.14 1321.8 1095.16 1345.1 C 1082.95 1352.04 1072.6 1362.17 1059.49 1367.44 C 1062.53 1362.65 1065.93 1358.07 1069.38 1353.57 C 1095.61 1319.34 1128.83 1293.17 1172.56 1287.36 z"/>
<path transform="translate(0,0)" fill="rgb(254,254,252)" d="M 898.972 1122.6 C 910.474 1129.26 922.621 1145.31 928.881 1157.03 C 949.158 1195.02 943.102 1238.34 931.079 1277.71 C 930.275 1280.12 929.573 1282.95 928.178 1285.08 C 927.033 1286.84 926.591 1286.86 924.678 1287.28 C 922.534 1285.47 922.257 1282.82 921.79 1280.18 C 919.182 1265.46 921.472 1248.96 921.074 1233.93 C 920.008 1193.57 912.599 1160.63 898.972 1122.6 z"/>
<path transform="translate(0,0)" fill="rgb(254,254,252)" d="M 939.308 679.638 C 945.593 691.601 942.961 775.718 941.563 793.78 L 940.08 793.35 C 939.583 792.643 939.322 792.378 939.09 791.434 C 936.895 782.528 939.02 767.034 938.862 757.416 C 938.481 734.163 935.887 710.124 937.209 686.94 C 937.377 683.982 937.832 682.193 939.308 679.638 z"/>
<path transform="translate(0,0)" fill="rgb(203,201,202)" d="M 1563.07 1284.31 C 1563.7 1284.92 1564.56 1285.36 1564.95 1286.14 C 1565.79 1287.85 1565.72 1293.96 1566 1296.16 C 1568.34 1314.84 1570.17 1343.34 1580.62 1358.77 C 1599.36 1386.43 1633.28 1382.65 1661.92 1388.19 L 1661.98 1389.39 C 1653.68 1393.3 1637.88 1392.61 1628.36 1393.74 C 1622.62 1394.41 1607.43 1398.37 1602.09 1400.59 C 1601.7 1400.76 1601.34 1400.98 1600.95 1401.15 C 1598.38 1402.27 1596.77 1403.28 1594.56 1405.08 C 1593.12 1406.26 1591.72 1407.43 1590.19 1408.49 C 1567.81 1423.91 1571.14 1463.28 1566.4 1486.82 L 1565.77 1488.73 C 1559.94 1482.68 1557.4 1446.61 1554.81 1436.58 C 1547.13 1406.94 1523.02 1397.58 1495.35 1393.8 C 1487.79 1392.77 1478.42 1392.46 1471.78 1388.52 L 1472.13 1387.3 C 1477.57 1385.49 1483.87 1385.65 1489.58 1385.37 C 1502.95 1384.73 1517.13 1382.72 1528.98 1376.08 C 1552.03 1363.17 1557.27 1334.08 1559.74 1310 C 1560.6 1301.58 1560.69 1292.45 1563.07 1284.31 z"/>
<path transform="translate(0,0)" fill="rgb(203,201,202)" d="M 1654.49 642.258 C 1659.12 647.469 1659.09 698.622 1670.74 717.827 C 1685.37 741.944 1728.32 737.811 1752.25 743.437 L 1752.17 743.934 C 1749.73 746.045 1746.64 745.045 1743.64 745.107 C 1740.21 745.178 1726.08 748.448 1721.01 749.143 C 1658.58 757.703 1666.35 777.681 1658.73 831.502 C 1658.17 835.453 1658.23 841.706 1655.47 844.443 C 1652.01 824.691 1652.04 802.251 1645.45 783.361 C 1635.2 753.973 1604.93 750.603 1577.9 747.605 C 1570.92 746.831 1563.22 747.122 1556.83 743.935 L 1556.89 743.053 C 1560.82 741.563 1565.64 742.018 1569.84 741.502 C 1586.99 739.397 1616.94 737.755 1631.16 727.299 C 1651.52 712.329 1650.3 665.387 1654.49 642.258 z"/>
<path transform="translate(0,0)" fill="rgb(203,201,202)" d="M 1573.52 335.283 C 1577.89 340.242 1578.35 356.87 1579.32 363.5 C 1583.18 389.942 1586.45 405.86 1614.06 414.339 C 1626.67 418.21 1639.61 420.06 1652.74 421.059 C 1656.95 421.379 1664.91 420.963 1668.25 423.446 L 1667.48 424.295 C 1664.45 424.211 1662.09 425.095 1659.16 425.558 C 1641.89 428.283 1614.15 431.173 1600.05 442.211 C 1579.94 457.947 1578.54 497.102 1575.8 521.039 C 1569.76 503.723 1569.73 483.35 1565 465.42 C 1556.41 432.813 1524.8 431.773 1496.76 428.147 C 1491.83 427.509 1484.73 427.431 1480.48 424.927 C 1485.33 420.877 1534.86 419.239 1553.02 406.641 C 1571.34 393.929 1569.9 355.427 1573.52 335.283 z"/>
<path transform="translate(0,0)" fill="rgb(203,201,202)" d="M 1240.04 1387.52 C 1244.91 1393.31 1244.26 1416.85 1245.76 1425.56 C 1252.74 1465.94 1277.48 1476.41 1314.27 1479.43 C 1318.45 1479.78 1325.94 1479.46 1329.29 1481.83 L 1329.09 1483.01 C 1320.8 1487.02 1309.19 1482.49 1301 1485.83 C 1286.08 1491.93 1279.86 1486.91 1264.09 1499.7 C 1242.3 1517.36 1242.9 1549.48 1239.78 1575.04 C 1231.53 1554.51 1239.86 1526.22 1220.64 1505.2 C 1215.64 1499.73 1195.23 1488.97 1188.15 1488.67 C 1178.21 1488.25 1159.54 1485.38 1150.06 1483.04 L 1149.7 1481.55 C 1152.33 1479.81 1187.16 1477.24 1194.4 1475.27 C 1200.77 1473.54 1209.14 1469.04 1214.65 1465.48 C 1236.59 1451.28 1235.56 1409.93 1240.04 1387.52 z"/>
<path transform="translate(0,0)" fill="rgb(203,201,202)" d="M 1117.66 405.127 C 1118.35 405.684 1119.35 406 1119.73 406.798 C 1121.75 410.996 1121.56 421.688 1122.38 426.684 C 1123.97 436.367 1126.33 447.908 1130.07 457.019 C 1137.25 474.493 1167.66 480.114 1183.96 482.938 C 1190.23 484.025 1197.38 484.091 1203.3 486.315 L 1203.05 486.741 L 1201.63 485.114 L 1202.05 487.096 C 1196.24 489.002 1189.63 488.716 1183.59 489.604 C 1176.75 490.609 1169.94 492.307 1163.23 493.989 C 1156.6 495.654 1137.8 499.866 1134.6 506.452 C 1131.46 512.911 1127.72 519.132 1125.77 526.088 C 1122.79 536.765 1122.92 548.277 1119.2 558.71 C 1119.36 559.736 1119.11 561.041 1119.02 562.083 L 1118.03 562.746 C 1114.95 555.118 1115.62 540.786 1112.97 535.787 C 1109.52 529.274 1109.77 520.886 1106.65 513.95 C 1098.62 496.079 1071.46 492.092 1054.01 489.12 C 1049.96 488.432 1045.63 488.817 1041.8 487.304 C 1046.02 481.113 1084.54 481.531 1098.7 468.524 C 1112.48 455.869 1117.26 424.56 1117.65 406.298 C 1117.66 405.908 1117.66 405.517 1117.66 405.127 z"/>
<path transform="translate(0,0)" fill="rgb(203,201,202)" d="M 1739.66 1057.27 C 1745.85 1066.34 1743.01 1098.66 1752.04 1115.74 C 1754.53 1120.45 1758.16 1123.77 1762.36 1126.92 C 1783.38 1142.7 1803.18 1132.75 1824.8 1139.11 L 1825.04 1140.06 C 1820.71 1143.7 1783.52 1141.59 1764.92 1156.09 C 1743.8 1172.56 1743.38 1204.57 1740.59 1229.08 C 1731.75 1214.29 1737.5 1187.1 1728.04 1168.85 C 1716.42 1146.44 1688.95 1147.66 1667.55 1144.04 C 1663.15 1143.3 1658.98 1143.85 1654.65 1142.42 C 1655.67 1140.42 1658.29 1140.15 1660.42 1139.81 C 1680.46 1136.56 1698.8 1138.05 1716.97 1126.31 C 1736.59 1113.63 1735.05 1077.76 1739.66 1057.27 z"/>
</svg>