<svg version="1.1" xmlns="http://www.w3.org/2000/svg" style="display: block;" viewBox="0 0 2048 2048" width="1024" height="1024">
<defs>
	<linearGradient id="Gradient1" gradientUnits="userSpaceOnUse" x1="1102.89" y1="1795.12" x2="361.337" y2="1370.5">
		<stop class="stop0" offset="0" stop-opacity="1" stop-color="rgb(28,107,80)"/>
		<stop class="stop1" offset="1" stop-opacity="1" stop-color="rgb(60,136,111)"/>
	</linearGradient>
</defs>
<path transform="translate(0,0)" fill="rgb(254,254,254)" d="M 0 0 L 2048 0 L 2048 2048 L 0 2048 L 0 0 z"/>
<path transform="translate(0,0)" fill="rgb(216,239,226)" d="M 887.602 86.5386 C 904.224 83.885 921.586 84.1637 938.376 83.558 C 988.704 81.7426 1039.77 81.7657 1090 85.7105 C 1097.48 86.2985 1106.22 86.1926 1113.46 88.045 C 1194.72 92.3955 1275.11 108.789 1353.98 128.094 C 1371.2 132.31 1387.99 138.347 1405.2 142.38 C 1562.61 189.758 1741.73 270.871 1851.19 397.489 C 1875.29 425.366 1895.1 455.825 1912.52 488.23 C 1943.86 546.308 1962.65 610.328 1967.66 676.135 C 1968.44 686.649 1970.26 700.543 1968.3 710.79 C 1968.24 727.986 1968.77 745.418 1966.06 762.454 C 1963.03 794.134 1959.44 825.76 1955.32 857.317 C 1954.02 867.144 1953.53 879.548 1950.42 888.924 C 1916.54 1124.32 1982.98 1334.38 1884.46 1567.23 C 1853.89 1639.47 1804.97 1706.95 1741.94 1754.45 C 1732.74 1761.38 1722.81 1767.23 1713.59 1774.07 C 1715.23 1779.09 1716.72 1784.44 1719.17 1789.13 C 1723.81 1797.98 1730.79 1805.81 1734.33 1815.21 C 1723.03 1823.84 1708.91 1830.36 1696.48 1837.34 C 1659.65 1858.02 1622.13 1876.88 1584.54 1896.06 C 1567.13 1904.94 1545.17 1918.87 1526.88 1924.48 C 1519.76 1926.66 1509.14 1924.61 1501.88 1923.62 C 1461.65 1918.11 1417.52 1907.74 1378.36 1896.76 C 1360.55 1900.52 1343.03 1905.38 1325.1 1908.71 C 1211.62 1929.19 1096.55 1939.61 981.234 1939.87 C 959.62 1940.58 937.762 1940.08 916.124 1940 C 897.524 1939.93 876.419 1941.18 858.248 1937.9 C 843.799 1936.74 829.337 1935.74 814.865 1934.92 C 800.672 1935.71 780.42 1931.63 765.999 1929.98 C 711.956 1923.78 577.4 1908.25 535.636 1881.33 C 535.3 1881.11 534.972 1880.89 534.639 1880.66 L 533.934 1890.35 C 532.402 1893.15 530.9 1896.31 528.626 1898.58 C 526.192 1901.02 523.341 1901.62 520.009 1901.53 C 498.988 1900.92 453.503 1877.79 439.821 1862.07 C 437.073 1858.92 436.761 1856.79 436.995 1852.7 C 425.668 1849.55 404.411 1834.74 394.017 1827.36 C 334.47 1784.7 283.767 1730.88 244.717 1668.91 C 190.431 1581.77 156.228 1467.43 134.584 1367.64 C 128.971 1341.76 121.881 1316.11 117.472 1289.99 C 112.955 1262.74 107.432 1235.61 103.242 1208.31 C 94.4454 1151.34 87.9894 1094.04 83.8898 1036.54 C 79.7997 1019.7 76.2757 856.808 79.8296 835.756 C 80.749 797.452 84.2287 758.776 88.8927 720.761 C 105.998 581.338 147.298 441.287 238.22 331.395 C 269.396 293.714 304.799 262.192 345.006 234.382 C 427.016 177.657 507.031 149.412 603.185 126.416 C 654.792 114.179 707.01 104.675 759.619 97.9431 C 802.239 92.7101 844.914 90.6248 887.602 86.5386 z"/>
<path transform="translate(0,0)" fill="rgb(36,106,82)" d="M 1659.94 1097.6 C 1695.24 1061.64 1728.49 1023.46 1761.95 985.794 L 1884.91 849.999 C 1911.79 820.552 1937.94 790.759 1966.06 762.454 C 1963.03 794.134 1959.44 825.76 1955.32 857.317 C 1954.02 867.144 1953.53 879.548 1950.42 888.924 C 1916.54 1124.32 1982.98 1334.38 1884.46 1567.23 C 1853.89 1639.47 1804.97 1706.95 1741.94 1754.45 C 1732.74 1761.38 1722.81 1767.23 1713.59 1774.07 C 1715.23 1779.09 1716.72 1784.44 1719.17 1789.13 C 1723.81 1797.98 1730.79 1805.81 1734.33 1815.21 C 1723.03 1823.84 1708.91 1830.36 1696.48 1837.34 C 1659.65 1858.02 1622.13 1876.88 1584.54 1896.06 C 1567.13 1904.94 1545.17 1918.87 1526.88 1924.48 C 1519.76 1926.66 1509.14 1924.61 1501.88 1923.62 C 1461.65 1918.11 1417.52 1907.74 1378.36 1896.76 C 1360.55 1900.52 1343.03 1905.38 1325.1 1908.71 C 1211.62 1929.19 1096.55 1939.61 981.234 1939.87 C 959.62 1940.58 937.762 1940.08 916.124 1940 C 897.524 1939.93 876.419 1941.18 858.248 1937.9 C 843.799 1936.74 829.337 1935.74 814.865 1934.92 C 812.592 1934.35 810.33 1933.73 808.079 1933.08 C 814.383 1924.28 824.015 1916.36 831.739 1908.72 C 851.524 1889.15 871.848 1870.13 891.148 1850.07 C 897.408 1843.57 905.264 1836.73 909.926 1829.02 C 912.671 1830.89 913.874 1831.14 917.091 1830.89 C 919.455 1829.69 920.065 1828.45 921.217 1826.2 C 921.355 1825.93 921.487 1825.66 921.622 1825.38 C 929.239 1822.18 938.005 1820.41 945.954 1818.09 L 992.207 1804.42 C 1011.2 1797.81 1118.41 1768.43 1126.72 1760.91 C 1124.82 1756.62 1102.67 1749.47 1097.52 1747.4 C 1097.56 1746.08 1097.54 1745.45 1097.72 1744.24 C 1098.31 1740.3 1102.35 1736.27 1104.9 1733.31 C 1123.64 1711.61 1144.76 1691.8 1164.57 1671.07 C 1180.88 1654.01 1200.99 1629.41 1219.35 1615.47 C 1215.19 1600.28 1213.34 1584.72 1212.17 1569.05 C 1211.8 1554.25 1208.99 1526.5 1214.06 1512.8 C 1219.29 1498.65 1255.75 1486.91 1269.78 1480.99 C 1258.38 1477.3 1246.89 1472.7 1236.63 1466.48 C 1233.15 1452.53 1228.24 1380.11 1233.82 1368.39 C 1237.77 1360.07 1297.07 1336.73 1309.08 1332.13 C 1312.08 1320.18 1318.38 1308.69 1328.9 1301.76 C 1335.85 1297.18 1340.93 1296.33 1348.93 1297.98 C 1357.32 1293.22 1364.63 1288.91 1374.44 1287.89 C 1386.47 1252.57 1402.73 1218.57 1420.07 1185.62 C 1390.31 1170.8 1365.68 1150.61 1348.53 1121.84 C 1343.38 1113.2 1334.27 1099.47 1337.22 1089.35 C 1339.75 1080.67 1346.74 1073.74 1352.73 1067.3 C 1370.01 1048.73 1388.01 1034.7 1410.4 1022.71 C 1455.39 998.603 1502.49 992.524 1551.3 1007.2 C 1558.54 994.145 1564.79 980.406 1571.68 967.143 C 1580.58 950.381 1589.73 933.753 1599.12 917.264 L 1598.7 915.587 C 1597.85 912.374 1597.01 909.406 1597.31 906.042 C 1597.84 900.103 1599.96 893.631 1604.94 889.973 C 1608.63 887.263 1613.72 886.617 1618.16 887.291 C 1625.68 888.434 1632.68 892.908 1637.04 899.112 C 1640.02 903.361 1641.79 908.605 1640.68 913.792 C 1639.61 918.785 1635.85 923.325 1631.6 926.022 C 1624.54 930.502 1617.43 928.459 1609.94 926.618 C 1605.82 935.37 1600.21 943.841 1595.5 952.331 C 1584.62 971.534 1574.23 991.003 1564.31 1010.72 C 1594.56 1020.57 1621.02 1045.91 1641.18 1069.66 C 1647.82 1078.77 1653.93 1088.07 1659.94 1097.6 z"/>
<path transform="translate(0,0)" fill="rgb(174,223,200)" d="M 1659.94 1097.6 C 1695.24 1061.64 1728.49 1023.46 1761.95 985.794 L 1884.91 849.999 C 1911.79 820.552 1937.94 790.759 1966.06 762.454 C 1963.03 794.134 1959.44 825.76 1955.32 857.317 C 1954.02 867.144 1953.53 879.548 1950.42 888.924 C 1916.54 1124.32 1982.98 1334.38 1884.46 1567.23 C 1853.89 1639.47 1804.97 1706.95 1741.94 1754.45 C 1732.74 1761.38 1722.81 1767.23 1713.59 1774.07 C 1708.12 1745.03 1706.94 1721.93 1713.76 1693 C 1717.77 1691.07 1723.38 1689.07 1726.18 1685.51 C 1728.62 1682.42 1730.31 1678.92 1729.68 1674.92 C 1729.31 1672.59 1727.68 1670.65 1725.58 1669.61 C 1721.25 1667.48 1717.77 1668.33 1713.41 1669.81 C 1712.88 1669.49 1712.16 1669.07 1711.68 1668.7 C 1706.62 1664.68 1716.5 1657.2 1715.45 1651.55 C 1714.98 1649.04 1714.15 1647.72 1712.15 1646.23 C 1717.47 1643.74 1724.72 1641.36 1727.52 1635.87 C 1727.89 1627.6 1723.01 1627.59 1719.36 1621.81 C 1717.04 1618.13 1715.92 1612.59 1714.7 1608.43 C 1706.74 1581.6 1706.14 1553.13 1712.94 1525.99 C 1714.43 1525.24 1715.9 1524.46 1717.36 1523.65 C 1722.43 1520.82 1725.44 1517.62 1726.85 1511.87 C 1727.65 1508.6 1726.82 1507 1725.07 1504.28 C 1720.17 1501.24 1716.33 1501.9 1710.88 1503.1 C 1710.99 1499.04 1710.8 1495.75 1708.71 1492.21 C 1714.1 1487.82 1722.44 1485.43 1728.4 1481.45 C 1731.26 1479.54 1732.51 1477.97 1733.26 1474.52 C 1732.24 1468.44 1728.31 1465.95 1723.74 1462.45 C 1717.5 1433.85 1717.62 1408.76 1721.64 1379.98 C 1727.23 1375.97 1735.59 1372.39 1738.63 1365.87 C 1740.07 1362.76 1739.43 1360.56 1738.45 1357.52 C 1733.2 1352.95 1665.43 1338.41 1653.42 1335.15 C 1660.44 1303.52 1652.81 1270.14 1642.85 1240.09 C 1636.24 1221.66 1622.83 1191.49 1605.22 1181.29 C 1632.73 1166.7 1652.26 1145.66 1670.07 1120.6 C 1667.85 1112.37 1664.09 1105 1659.94 1097.6 z"/>
<path transform="translate(0,0)" fill="rgb(216,239,226)" d="M 1659.94 1097.6 C 1695.24 1061.64 1728.49 1023.46 1761.95 985.794 L 1884.91 849.999 C 1911.79 820.552 1937.94 790.759 1966.06 762.454 C 1963.03 794.134 1959.44 825.76 1955.32 857.317 C 1954.02 867.144 1953.53 879.548 1950.42 888.924 C 1937.79 896.19 1920.51 920.287 1909.51 931.866 C 1846.17 999.337 1784.56 1068.42 1724.75 1139.03 C 1707.87 1159.16 1691.78 1180.02 1675.57 1200.68 C 1665.04 1214.1 1654.78 1227.85 1642.85 1240.09 C 1636.24 1221.66 1622.83 1191.49 1605.22 1181.29 C 1632.73 1166.7 1652.26 1145.66 1670.07 1120.6 C 1667.85 1112.37 1664.09 1105 1659.94 1097.6 z"/>
<path transform="translate(0,0)" fill="rgb(216,239,226)" d="M 1219.35 1615.47 C 1233.61 1622.81 1248.51 1628.66 1262.91 1635.66 C 1252.89 1646.11 1230.81 1659.23 1223.75 1670.23 C 1213.46 1675.31 1203.2 1680.4 1192.65 1684.93 C 1189.98 1694.03 1189.55 1703.36 1189.05 1712.78 C 1172.67 1727 1157.85 1743.74 1143.05 1759.62 C 1111.67 1793.27 1081.48 1828.19 1050.56 1862.27 C 1030.34 1884.57 1009.18 1906.03 989.442 1928.76 C 986.87 1931.72 982.237 1936.07 981.234 1939.87 C 959.62 1940.58 937.762 1940.08 916.124 1940 C 897.524 1939.93 876.419 1941.18 858.248 1937.9 C 843.799 1936.74 829.337 1935.74 814.865 1934.92 C 812.592 1934.35 810.33 1933.73 808.079 1933.08 C 814.383 1924.28 824.015 1916.36 831.739 1908.72 C 851.524 1889.15 871.848 1870.13 891.148 1850.07 C 897.408 1843.57 905.264 1836.73 909.926 1829.02 C 912.671 1830.89 913.874 1831.14 917.091 1830.89 C 919.455 1829.69 920.065 1828.45 921.217 1826.2 C 921.355 1825.93 921.487 1825.66 921.622 1825.38 C 929.239 1822.18 938.005 1820.41 945.954 1818.09 L 992.207 1804.42 C 1011.2 1797.81 1118.41 1768.43 1126.72 1760.91 C 1124.82 1756.62 1102.67 1749.47 1097.52 1747.4 C 1097.56 1746.08 1097.54 1745.45 1097.72 1744.24 C 1098.31 1740.3 1102.35 1736.27 1104.9 1733.31 C 1123.64 1711.61 1144.76 1691.8 1164.57 1671.07 C 1180.88 1654.01 1200.99 1629.41 1219.35 1615.47 z"/>
<path transform="translate(0,0)" fill="rgb(174,223,200)" d="M 909.926 1829.02 C 912.671 1830.89 913.874 1831.14 917.091 1830.89 C 919.455 1829.69 920.065 1828.45 921.217 1826.2 C 921.355 1825.93 921.487 1825.66 921.622 1825.38 C 929.239 1822.18 938.005 1820.41 945.954 1818.09 L 992.207 1804.42 C 981.538 1816.72 968.086 1827.13 956.635 1838.85 C 924.075 1872.19 892.034 1905.75 858.248 1937.9 C 843.799 1936.74 829.337 1935.74 814.865 1934.92 C 812.592 1934.35 810.33 1933.73 808.079 1933.08 C 814.383 1924.28 824.015 1916.36 831.739 1908.72 C 851.524 1889.15 871.848 1870.13 891.148 1850.07 C 897.408 1843.57 905.264 1836.73 909.926 1829.02 z"/>
<path transform="translate(0,0)" fill="rgb(174,223,200)" d="M 1189.05 1712.78 C 1188.96 1755.32 1187.4 1798.55 1199.86 1839.74 C 1215.35 1847.85 1232.94 1853.06 1249.47 1858.64 C 1291.72 1872.92 1335.19 1885.53 1378.36 1896.76 C 1360.55 1900.52 1343.03 1905.38 1325.1 1908.71 C 1211.62 1929.19 1096.55 1939.61 981.234 1939.87 C 982.237 1936.07 986.87 1931.72 989.442 1928.76 C 1009.18 1906.03 1030.34 1884.57 1050.56 1862.27 C 1081.48 1828.19 1111.67 1793.27 1143.05 1759.62 C 1157.85 1743.74 1172.67 1727 1189.05 1712.78 z"/>
<path transform="translate(0,0)" fill="rgb(254,254,254)" d="M 1297.51 1651.97 C 1325.29 1663.79 1352.28 1677.44 1380.08 1689.2 C 1410.95 1702.01 1442.55 1712.96 1474.73 1721.99 C 1493.06 1727.17 1511.87 1732.46 1530.87 1734.31 C 1582.78 1708.38 1634.84 1682.76 1687.05 1657.46 C 1687.33 1657.61 1687.62 1657.76 1687.91 1657.91 C 1693.12 1660.53 1706.35 1662.38 1708.47 1668.14 C 1708.9 1669.31 1709.07 1670.49 1709.29 1671.71 C 1672.61 1689.2 1636.16 1707.16 1599.95 1725.59 C 1567.19 1742.21 1534.95 1759.29 1501.56 1774.65 C 1468.91 1766.36 1436.07 1758.87 1403.56 1750.03 C 1358.28 1737.53 1313.41 1723.55 1269.03 1708.12 C 1251.13 1701.91 1233.02 1696.14 1215.44 1689.04 C 1241.31 1674.59 1270.3 1663.75 1297.51 1651.97 z"/>
<path transform="translate(0,0)" fill="rgb(254,254,254)" d="M 1288.35 1488.36 C 1343.27 1513.86 1398.32 1537.35 1456.08 1555.78 C 1472.15 1560.91 1522.37 1575.84 1537.8 1574.37 C 1551.11 1573.09 1608.7 1541.6 1623.33 1534.36 C 1651.79 1520.26 1680.5 1506.81 1708.71 1492.21 C 1710.8 1495.75 1710.99 1499.04 1710.88 1503.1 C 1699.41 1506.62 1687.66 1513.49 1677.02 1519.02 C 1656.27 1529.81 1635.85 1541.21 1615.14 1552.05 C 1581.44 1569.7 1546.81 1585.49 1513.05 1603.02 C 1498.73 1595.62 1480.25 1592.38 1464.66 1588.01 C 1443.22 1582.02 1421.88 1575.64 1400.67 1568.89 C 1363.97 1557.13 1327.41 1544.93 1290.99 1532.3 C 1273.09 1526.05 1255.35 1518.72 1237.24 1513.18 C 1253.14 1503.39 1271.23 1495.79 1288.35 1488.36 z"/>
<path transform="translate(0,0)" fill="rgb(174,223,200)" d="M 1262.91 1635.66 C 1268.31 1638.23 1273.77 1640.72 1279.08 1643.48 C 1262.25 1654.08 1242.28 1663.06 1223.75 1670.23 C 1230.81 1659.23 1252.89 1646.11 1262.91 1635.66 z"/>
<path transform="translate(0,0)" fill="rgb(216,239,226)" d="M 1687.05 1657.46 C 1695.25 1653.37 1703.63 1649.62 1712.15 1646.23 C 1714.15 1647.72 1714.98 1649.04 1715.45 1651.55 C 1716.5 1657.2 1706.62 1664.68 1711.68 1668.7 C 1712.16 1669.07 1712.88 1669.49 1713.41 1669.81 L 1709.29 1671.71 C 1709.07 1670.49 1708.9 1669.31 1708.47 1668.14 C 1706.35 1662.38 1693.12 1660.53 1687.91 1657.91 C 1687.62 1657.76 1687.33 1657.61 1687.05 1657.46 z"/>
<path transform="translate(0,0)" fill="rgb(254,254,254)" d="M 1206.95 1694.97 C 1273.34 1719.9 1340.84 1741.77 1409.23 1760.5 C 1437.25 1767.99 1465.6 1774.35 1493.79 1781.19 C 1488.9 1821.61 1500.86 1872.4 1514.51 1910.6 C 1493.98 1905.52 1473.08 1901.97 1452.45 1897.31 C 1417.92 1889.35 1383.57 1880.65 1349.42 1871.2 C 1304.23 1858.74 1260.13 1841.97 1215 1829.53 C 1206.47 1785.44 1205.52 1739.71 1206.95 1694.97 z"/>
<path transform="translate(0,0)" fill="rgb(254,254,254)" d="M 1228.75 1519.92 C 1256.78 1528.64 1284.14 1539.17 1312 1548.35 C 1375.95 1569.94 1440.49 1589.77 1505.53 1607.82 C 1506.46 1646.92 1510.95 1682.29 1523.5 1719.48 C 1484.1 1707.17 1444.23 1697.15 1405.69 1682.13 C 1346.64 1659.11 1290.06 1628.94 1232.17 1603.15 C 1227.69 1576.76 1227.74 1546.53 1228.75 1519.92 z"/>
<path transform="translate(0,0)" fill="rgb(254,254,254)" d="M 1248.38 1380.14 C 1275.47 1389.79 1303.87 1396.01 1331.52 1403.91 C 1397.26 1422.72 1463.53 1441.49 1530.74 1454.3 C 1531.14 1489.49 1530.56 1526.6 1541.92 1560.45 C 1523.26 1559.56 1504.68 1553.66 1486.83 1548.51 C 1436 1533.84 1386.96 1513.84 1338.54 1492.67 C 1309.11 1479.8 1279.79 1465.49 1249.47 1454.9 C 1247.42 1430.67 1247.38 1404.38 1248.38 1380.14 z"/>
<path transform="translate(0,0)" fill="rgb(254,254,254)" d="M 1703.08 1698.32 C 1703.13 1698.48 1699.79 1740.36 1700.23 1747.97 C 1701.25 1765.45 1707.03 1781.14 1712.89 1797.45 C 1677.51 1817.34 1640.59 1834.98 1604.57 1853.71 C 1584.54 1864.12 1551.57 1883.76 1531.53 1890.14 C 1521.04 1868.15 1514.45 1821.71 1515.03 1797.04 C 1531.94 1785.15 1554.41 1775.96 1572.91 1766.48 C 1600.93 1752.12 1628.48 1736.97 1656.36 1722.37 C 1671.88 1714.23 1687.81 1706.94 1703.08 1698.32 z"/>
<path transform="translate(0,0)" fill="rgb(36,106,82)" d="M 1687.56 1760.98 C 1688.54 1761.2 1689.31 1761.79 1690.18 1762.31 L 1690.62 1764.82 C 1687.18 1770.75 1560.92 1833.46 1546.43 1841.34 C 1544.59 1839.27 1542.71 1837.53 1542.79 1834.71 C 1554.55 1826.4 1573.63 1818.71 1587.1 1811.8 C 1620.41 1794.71 1653.66 1776.84 1687.56 1760.98 z"/>
<path transform="translate(0,0)" fill="rgb(36,106,82)" d="M 1654.61 1747.88 C 1656.64 1747.91 1657.07 1748.2 1658.79 1749.14 L 1659.28 1750.87 C 1653.78 1758.99 1594.37 1786.57 1581.35 1792.77 C 1580.23 1792.8 1579.17 1792.26 1578.12 1791.91 L 1578.2 1790.21 C 1585.28 1780.94 1641.14 1754.38 1654.61 1747.88 z"/>
<path transform="translate(0,0)" fill="rgb(254,254,254)" d="M 1430.62 1207.88 C 1458.8 1215.74 1486.11 1224.31 1514.86 1230.12 C 1512.13 1250.8 1507.93 1271.27 1505.73 1292.04 C 1502.21 1325.39 1505.02 1364.27 1513.94 1396.53 L 1499.93 1393.39 C 1471.81 1385.23 1433.62 1375.68 1407.51 1363.99 C 1399.69 1336.71 1406.54 1288.99 1413.58 1261.12 C 1418.11 1243.19 1424.82 1225.45 1430.62 1207.88 z"/>
<path transform="translate(0,0)" fill="rgb(36,106,82)" d="M 1423.49 1280.03 C 1425.33 1279.99 1427.16 1279.92 1429 1280.03 C 1437.24 1280.53 1488.2 1295.14 1492.64 1300.05 C 1493.91 1306.48 1494.36 1335.42 1491.5 1341.31 L 1489.52 1341.97 C 1465.77 1336.32 1441.58 1325.7 1418.29 1317.98 C 1418.08 1316.09 1417.92 1314.2 1417.82 1312.3 C 1417.31 1302.22 1416.28 1287.95 1423.49 1280.03 z"/>
<path transform="translate(0,0)" fill="rgb(254,254,254)" d="M 1435.22 1288.03 C 1452.61 1293.51 1469.96 1299.09 1487.27 1304.77 C 1487.43 1313.73 1487.81 1323.56 1485.77 1332.31 C 1468.47 1325.89 1450.51 1321.16 1433.1 1314.87 C 1434.13 1305.95 1434.63 1296.99 1435.22 1288.03 z"/>
<path transform="translate(0,0)" fill="rgb(254,254,254)" d="M 1424.51 1286.54 C 1426.53 1286.71 1428.52 1287 1430.52 1287.28 C 1432.88 1288.94 1433.51 1289.88 1434.5 1292.59 C 1434.32 1295.74 1433.81 1297 1432.12 1299.67 L 1428.62 1298.88 L 1427.66 1300.46 L 1427.48 1299.27 C 1428.71 1302.28 1430.78 1301.53 1432.9 1304.05 C 1432.76 1305.22 1432.74 1305.56 1432.47 1306.85 C 1431.93 1309.36 1431.76 1311.51 1429.52 1312.84 C 1426.74 1312.7 1426.69 1312.68 1424.58 1310.87 C 1421.53 1303.47 1423.65 1294.32 1424.51 1286.54 z"/>
<path transform="translate(0,0)" fill="rgb(254,254,254)" d="M 1703.76 1530.92 C 1704.1 1537.42 1701.59 1545.44 1700.99 1552.12 C 1698.75 1577.04 1701.96 1596.36 1710.19 1619.8 C 1670.6 1637.75 1631.14 1656.62 1592 1675.54 C 1582.76 1680.01 1547.88 1698.39 1542.02 1699.54 C 1541.33 1699.68 1540.63 1699.3 1539.94 1699.18 C 1529.84 1678.57 1527.44 1645.61 1525.97 1622.48 C 1538.44 1614.99 1552.53 1609.71 1565.52 1603.09 C 1611.73 1579.56 1659.2 1557.53 1703.76 1530.92 z"/>
<path transform="translate(0,0)" fill="rgb(36,106,82)" d="M 1684.19 1582.78 C 1686.87 1583.14 1687.51 1583.23 1689.67 1584.81 L 1689.68 1586.58 C 1682.67 1594.04 1670.07 1597.3 1661.04 1602.01 C 1627.44 1619.56 1594.41 1637.62 1560.33 1654.3 C 1560.26 1654.32 1560.2 1654.35 1560.14 1654.36 C 1557.01 1654.81 1557.13 1654.82 1554.66 1652.93 L 1554.67 1650.95 C 1561.77 1642.49 1578.31 1637.82 1588.03 1632.53 C 1619.77 1615.25 1651.72 1598.69 1684.19 1582.78 z"/>
<path transform="translate(0,0)" fill="rgb(254,254,254)" d="M 1254.44 1372.85 C 1270.1 1363.69 1287.38 1357.39 1303.98 1350.12 C 1318.76 1343.64 1333.38 1336.2 1348.66 1330.98 C 1347.66 1336.13 1346.15 1341.48 1345.58 1346.68 C 1345.16 1350.53 1345.19 1356.96 1348.05 1359.95 C 1349.16 1361.1 1350.1 1360.56 1351.54 1360.44 C 1358.34 1356.08 1361.35 1349.58 1365.22 1342.74 C 1366.99 1346.88 1367.84 1349.22 1372.18 1350.99 C 1380.54 1350.57 1389.43 1340.92 1396.78 1336.65 C 1396.87 1344.06 1396.36 1352.21 1397.6 1359.51 C 1398.3 1363.66 1399.59 1367.14 1403.2 1369.6 C 1418.44 1379.96 1501.33 1404.76 1519.43 1404.54 C 1536.35 1404.34 1550.88 1396.83 1567.03 1393.59 C 1568.88 1395.36 1565.53 1396.02 1566.01 1398.93 C 1568.39 1401.02 1570.04 1401.76 1573.06 1402.75 C 1582.42 1401.59 1589.79 1394.66 1596.36 1388.41 L 1597.94 1389.96 C 1600.58 1388 1603.75 1385.52 1607.3 1386.14 C 1608.61 1386.36 1608.67 1386.48 1609.7 1387.02 C 1610.11 1389.77 1609.02 1391.91 1607.45 1394.17 C 1604.24 1398.81 1599.66 1402.82 1595.66 1406.78 L 1598.33 1408.03 C 1592.99 1413.09 1590.04 1418.58 1586.77 1425.06 C 1570.23 1429.97 1548.65 1440.67 1532.13 1447.48 C 1466.72 1433.47 1401.72 1415.45 1337.45 1396.98 C 1309.9 1389.06 1281.43 1382.44 1254.44 1372.85 z"/>
<path transform="translate(0,0)" fill="rgb(36,106,82)" d="M 1597.94 1389.96 C 1600.58 1388 1603.75 1385.52 1607.3 1386.14 C 1608.61 1386.36 1608.67 1386.48 1609.7 1387.02 C 1610.11 1389.77 1609.02 1391.91 1607.45 1394.17 C 1604.24 1398.81 1599.66 1402.82 1595.66 1406.78 C 1593.2 1409.32 1590.17 1412.12 1587.2 1414.09 C 1584.67 1415.77 1583.25 1415.74 1580.38 1415.21 C 1580.28 1414.79 1580.1 1414.38 1580.08 1413.95 C 1579.81 1404.46 1591.69 1395.48 1597.94 1389.96 z"/>
<path transform="translate(0,0)" fill="rgb(254,254,254)" d="M 1433.67 1061.41 C 1439.11 1060.71 1444.9 1061.09 1450.39 1061.1 C 1434.56 1073.03 1422.78 1086.39 1420.02 1106.72 C 1418.07 1121 1420.57 1134.29 1429.78 1145.77 C 1439 1157.26 1452.66 1163.99 1467.18 1165.54 C 1486.11 1167.55 1505.58 1161.24 1520.32 1149.3 C 1530.32 1141.18 1537.64 1130.01 1538.75 1116.94 C 1540.41 1097.25 1530.19 1079.02 1518.22 1064.33 C 1561.22 1075.22 1593.01 1091.32 1629.39 1116.12 L 1639.34 1123.4 C 1626.26 1136.3 1611.9 1147.91 1595.69 1156.67 C 1551.12 1180.73 1491.79 1185.53 1443.54 1170.8 C 1402.91 1158.39 1372.04 1136.1 1352.05 1098.3 C 1353.14 1096.66 1354.27 1095.03 1355.51 1093.5 C 1373.45 1071.31 1406.88 1064.23 1433.67 1061.41 z"/>
<path transform="translate(0,0)" fill="rgb(254,254,254)" d="M 1710.78 1384.05 L 1711.27 1384.68 L 1711.15 1386.64 L 1711.62 1385.8 C 1709.35 1414.92 1709.86 1434.3 1715.89 1462.99 C 1663.95 1488.45 1610.71 1511.06 1559.6 1538.19 C 1555.77 1513.85 1552.63 1489.71 1551.5 1465.09 C 1564.75 1459.35 1588.65 1445.12 1601.8 1444.19 C 1621.34 1442.8 1621.61 1429.47 1635.35 1420.65 C 1643.08 1415.69 1652.28 1412.1 1660.58 1408.17 C 1677.43 1400.37 1694.16 1392.32 1710.78 1384.05 z"/>
<path transform="translate(0,0)" fill="rgb(36,106,82)" d="M 1699.31 1429.87 L 1700.66 1430.29 C 1701.13 1433.15 1701.21 1433.48 1700.05 1436.11 C 1690.17 1442.29 1678.27 1446.5 1667.75 1451.83 C 1642.53 1464.6 1616.9 1479.44 1590.47 1489.5 C 1589.1 1488.01 1588.24 1486.76 1587.36 1484.95 C 1593.54 1477.98 1684.26 1436.64 1699.31 1429.87 z"/>
<path transform="translate(0,0)" fill="rgb(139,205,177)" d="M 1427.92 1189.17 C 1465.41 1203.91 1503.25 1209.58 1543.21 1203.72 C 1554.5 1232.66 1567.2 1262.5 1574.47 1292.71 C 1581.7 1322.77 1580.42 1347.97 1563.73 1374.64 C 1552.77 1392.17 1540.14 1392.42 1521.62 1396.59 C 1513.9 1367.62 1511.63 1334.63 1512.78 1304.75 C 1513.28 1291.37 1522.47 1232.52 1521.01 1226.26 C 1518.97 1224.12 1516.84 1223.06 1514.04 1222.21 C 1503.65 1219.07 1492.63 1217.37 1482.08 1214.62 C 1463.33 1209.57 1444.74 1203.99 1426.31 1197.87 C 1405.94 1231.48 1394.96 1270.22 1380.53 1306.54 C 1386.97 1266.66 1408.11 1224.03 1427.92 1189.17 z"/>
<path transform="translate(0,0)" fill="rgb(139,205,177)" d="M 1472.76 1063.18 C 1483.06 1062.17 1493.48 1063.42 1502.77 1068.2 C 1514.25 1074.12 1522.26 1084.57 1526.14 1096.79 C 1529.64 1107.81 1529.39 1119.1 1523.8 1129.38 C 1516.18 1143.4 1502.37 1151.25 1487.54 1155.48 C 1475.7 1158.15 1463.88 1157.79 1452.95 1151.97 C 1442.43 1146.36 1435.3 1136.58 1432.15 1125.18 C 1428.62 1112.41 1430.73 1099.81 1437.47 1088.5 C 1445.51 1075.03 1457.78 1067.06 1472.76 1063.18 z"/>
<path transform="translate(0,0)" fill="rgb(36,106,82)" d="M 1473.05 1078.16 C 1481.23 1077.79 1488.14 1077.76 1495.43 1082.19 C 1502.22 1086.33 1506.97 1093.11 1508.56 1100.9 C 1510.34 1109.37 1508.7 1118.82 1503.87 1126.03 C 1498.61 1133.89 1491.44 1137.33 1482.48 1139.34 C 1475.32 1140.21 1468.33 1139.57 1461.8 1136.32 C 1454.06 1132.4 1448.3 1125.42 1445.92 1117.07 C 1443.67 1109.43 1444.31 1101.27 1448.34 1094.33 C 1453.78 1084.95 1462.9 1080.58 1473.05 1078.16 z"/>
<path transform="translate(0,0)" fill="rgb(254,254,254)" d="M 1470.06 1088.24 C 1474.27 1087.69 1478.13 1087.27 1482.25 1088.52 C 1487.99 1090.25 1492.97 1094.34 1495.55 1099.78 C 1497.82 1104.48 1498.09 1109.89 1496.31 1114.8 C 1493.72 1121.89 1488.1 1125.45 1481.6 1128.58 C 1476.65 1129.89 1473.18 1130.23 1468.24 1128.71 C 1462.92 1127.07 1458.74 1123.73 1456.3 1118.69 C 1453.9 1113.7 1453.61 1107.95 1455.49 1102.73 C 1458.11 1095.33 1463.29 1091.62 1470.06 1088.24 z"/>
<path transform="translate(0,0)" fill="rgb(36,106,82)" d="M 1470.34 1096.26 C 1476.49 1093.67 1483.58 1096.57 1486.15 1102.73 C 1488.72 1108.89 1485.79 1115.97 1479.62 1118.51 C 1473.49 1121.05 1466.46 1118.14 1463.9 1112.01 C 1461.34 1105.88 1464.22 1098.84 1470.34 1096.26 z"/>
<path transform="translate(0,0)" fill="rgb(216,239,226)" d="M 1485.61 1012.42 C 1497.26 1011.65 1508.96 1012.05 1520.53 1013.61 C 1590.7 1023.02 1619.07 1064.28 1658.47 1116.21 C 1633.3 1096.88 1610.07 1081.82 1581.25 1068.4 C 1574.17 1065.01 1566.77 1062.02 1559.42 1059.26 C 1502.12 1037.74 1431.87 1031.56 1375.09 1057.39 C 1406.89 1032.68 1445.18 1015.53 1485.61 1012.42 z"/>
<path transform="translate(0,0)" fill="rgb(216,239,226)" d="M 1604.82 1230.99 C 1608.38 1236.19 1611.19 1242.07 1613.71 1247.84 C 1630.98 1287.29 1627.98 1325.3 1612.3 1364.8 C 1602.34 1362.55 1593.38 1362.68 1583.22 1363.36 L 1580.53 1364.06 C 1580.12 1363.77 1579.41 1363.68 1579.29 1363.19 C 1579.18 1362.72 1582.62 1355.26 1583 1354.25 C 1585.8 1346.77 1588.6 1338.91 1588.6 1330.85 C 1588.62 1301.59 1579.93 1275.86 1570.07 1248.74 C 1583.35 1245.71 1594.44 1239.68 1604.82 1230.99 z"/>
<path transform="translate(0,0)" fill="rgb(254,254,254)" d="M 1718.94 1676.01 L 1719.89 1677.77 C 1717.12 1681.08 1519.47 1782.2 1506.29 1786.7 C 1503.52 1821.42 1512.32 1869.91 1525.99 1902.02 C 1540.88 1897.88 1556.84 1887.57 1570.56 1880.39 C 1606.93 1861.01 1643.55 1842.1 1680.41 1823.67 C 1692.06 1817.81 1704 1809.5 1716.19 1805.27 C 1718.08 1804.62 1718.36 1804.36 1720.23 1805.23 C 1720.03 1807.92 1719.68 1807.75 1717.61 1809.55 C 1688.76 1825.85 1659.12 1840.61 1629.87 1856.16 C 1594.88 1874.76 1559.64 1894.51 1523.17 1910.04 C 1509.19 1868.6 1501.27 1826.37 1501.89 1782.55 C 1526.14 1774.47 1550.62 1760.07 1573.35 1748.24 C 1604.37 1731.79 1635.65 1715.84 1667.18 1700.4 C 1684.24 1692.01 1701.33 1683.18 1718.94 1676.01 z"/>
<path transform="translate(0,0)" fill="rgb(139,205,177)" d="M 1645 1115.71 C 1648.55 1119.29 1651.37 1123.32 1655.53 1126.24 C 1632.2 1154.23 1609.93 1173.07 1575.49 1186.01 C 1560 1191.83 1544.3 1195.85 1527.81 1197.33 C 1479.33 1201.7 1425.47 1187.18 1388.14 1155.46 C 1384.32 1152.21 1380.55 1148.89 1377.33 1145.03 C 1384.82 1150.1 1391.9 1156.2 1399.69 1160.78 C 1440.94 1185.04 1496.02 1192.28 1542.6 1183.3 C 1573.95 1177.26 1603.16 1165.09 1627.63 1144.38 C 1633.07 1139.79 1638.84 1134.93 1642.82 1128.97 C 1644.35 1126.66 1645.25 1124.9 1645.46 1122.08 C 1644.49 1119.68 1643.57 1118.3 1641.78 1116.43 L 1645 1115.71 z"/>
<path transform="translate(0,0)" fill="rgb(254,254,254)" d="M 1715.83 1510.05 L 1716.74 1511.94 C 1714.01 1517.73 1535.33 1605.31 1516.62 1614.22 C 1515.94 1646.38 1524.03 1682.43 1534.2 1712.81 L 1656.92 1653.73 C 1673.42 1645.86 1690 1636.15 1707.08 1629.77 C 1709.98 1628.69 1712.34 1627.85 1715.44 1628.11 L 1715.96 1629.17 L 1713.68 1631.47 C 1685.24 1643.78 1657.51 1658.46 1629.54 1671.86 C 1597.3 1687.3 1563.58 1702.02 1532.55 1719.71 C 1520.23 1683.85 1514.58 1648.04 1513.63 1610.25 C 1529.42 1604.17 1544.73 1595.71 1559.89 1588.19 C 1579.7 1578.36 1599.8 1568.93 1619.33 1558.56 C 1650.99 1541.76 1682.61 1523.58 1715.83 1510.05 z"/>
<path transform="translate(0,0)" fill="rgb(254,254,254)" d="M 1649.03 1343.91 C 1671.72 1351.76 1696.74 1354.71 1720.16 1360.18 C 1708.7 1364.72 1697.58 1369.65 1686.42 1374.88 C 1672.9 1381.54 1659.23 1387.9 1645.42 1393.93 C 1643.72 1385.65 1640.9 1379.57 1636.56 1372.46 C 1643.01 1363.79 1645.62 1353.99 1649.03 1343.91 z"/>
<path transform="translate(0,0)" fill="rgb(254,254,254)" d="M 1587.35 1431.83 C 1588.02 1431.78 1588.95 1432.08 1589.62 1432.21 L 1590.21 1435.37 C 1583.71 1442.34 1552.93 1452.15 1542.74 1455.72 C 1542.73 1461.39 1542.82 1467.05 1543.02 1472.71 C 1543.53 1485.67 1547.1 1542.37 1554.59 1549.25 L 1557.15 1548.97 C 1558.2 1548.21 1559.27 1547.47 1560.33 1546.71 C 1577.28 1534.62 1617.69 1517.95 1638.05 1508.34 C 1653.32 1501.13 1668.67 1494 1683.84 1486.59 C 1693.4 1481.93 1702.7 1476.74 1712.49 1472.58 C 1714.94 1471.54 1716.68 1470.87 1719.36 1470.89 L 1720.01 1472.38 L 1718.61 1473.72 L 1605.45 1529.53 C 1587.93 1538.13 1568.26 1545.67 1551.9 1556.21 C 1539.5 1536.92 1538.91 1477.59 1538.65 1453.99 C 1554.55 1445.98 1571.35 1439.73 1587.35 1431.83 z"/>
<path transform="translate(0,0)" fill="rgb(216,239,226)" d="M 1577.87 1192.98 L 1579.38 1192.91 C 1587.34 1197.48 1595.07 1212 1600.37 1219.64 C 1591.22 1225.3 1582.22 1230.54 1572.27 1234.72 L 1565.33 1237.42 L 1552.02 1203.04 C 1560.81 1200 1569.36 1196.71 1577.87 1192.98 z"/>
<path transform="translate(0,0)" fill="rgb(174,223,200)" d="M 1641.78 1116.43 C 1629.21 1106.73 1615.91 1097.29 1602.05 1089.57 C 1551.9 1061.61 1498.42 1049.2 1441.09 1053.43 C 1428.38 1054.36 1414.54 1055.46 1402.27 1059.11 C 1385.88 1063.99 1355.37 1076.97 1347.58 1093.24 C 1345.89 1096.75 1346.94 1100.23 1348.41 1103.56 C 1349.27 1105.51 1349.63 1105.93 1349.57 1108.12 L 1348.16 1107.43 C 1347.06 1105.58 1346.54 1103.94 1346.18 1101.85 C 1345.39 1097.25 1344.77 1090.13 1347.74 1086.2 C 1365.53 1062.68 1400.5 1054.35 1428.14 1051.2 C 1505.12 1042.44 1584.63 1067.57 1645 1115.71 L 1641.78 1116.43 z"/>
<path transform="translate(0,0)" fill="rgb(174,223,200)" d="M 1591.75 1185.63 C 1593.72 1186.56 1594.67 1187.33 1595.98 1188.99 C 1621.47 1221.51 1641.35 1283.42 1635.78 1324.51 C 1634.17 1336.38 1630.07 1358.94 1620.01 1366.64 C 1619.06 1362.01 1624.86 1350.95 1626.47 1345.94 C 1641.11 1300.27 1630.51 1258.87 1607.81 1217.7 C 1602.32 1207.74 1595.15 1198.51 1590.02 1188.49 L 1591.75 1185.63 z"/>
<path transform="translate(0,0)" fill="rgb(139,205,177)" d="M 1596.36 1388.41 C 1601.11 1384.11 1606.15 1381.42 1612.65 1380.75 C 1616.56 1380.35 1622.37 1380.19 1625.55 1382.69 C 1627.63 1386.97 1628.14 1390.79 1626.45 1395.38 C 1622.28 1406.65 1612.33 1422.52 1603.13 1430.31 L 1601.22 1430.82 L 1600.48 1429.42 C 1604.88 1415.74 1628.74 1398.57 1624.41 1383.54 C 1615.41 1391.39 1607.56 1400.45 1598.33 1408.03 L 1595.66 1406.78 C 1599.66 1402.82 1604.24 1398.81 1607.45 1394.17 C 1609.02 1391.91 1610.11 1389.77 1609.7 1387.02 C 1608.67 1386.48 1608.61 1386.36 1607.3 1386.14 C 1603.75 1385.52 1600.58 1388 1597.94 1389.96 L 1596.36 1388.41 z"/>
<path transform="translate(0,0)" fill="rgb(254,254,254)" d="M 1726.89 1362.84 C 1727.82 1363.51 1728.74 1364.32 1729.63 1365.04 C 1726.83 1370.86 1651.64 1403.88 1641.29 1408.57 C 1640.26 1408.8 1640.88 1408.8 1639.51 1408.09 L 1640.03 1406.35 C 1647.84 1398.81 1711.6 1370.21 1726.89 1362.84 z"/>
<path transform="translate(0,0)" fill="rgb(54,131,105)" d="M 1590.74 1371.26 C 1596.44 1369.37 1605.07 1370.38 1611.03 1370.56 C 1615.53 1370.7 1622.01 1371.01 1625.23 1374.43 L 1624.39 1375.1 C 1620.26 1374.15 1613.42 1373.69 1609.81 1376.2 C 1607.98 1377.47 1609.45 1376.83 1607.59 1377.63 C 1606.34 1378.16 1605.07 1378.68 1603.82 1379.24 C 1599.66 1380.61 1589.96 1384.97 1585.92 1383.92 C 1586.3 1382.76 1586.7 1381.63 1587.12 1380.5 C 1585.44 1379.93 1585.91 1379.9 1584.43 1379.96 C 1583.14 1380.02 1581.83 1380.14 1580.54 1380.24 C 1577.33 1380.5 1575.85 1380.6 1572.84 1379.03 L 1573.1 1377.68 C 1577.9 1373.02 1584.37 1371.8 1590.74 1371.26 z"/>
<path transform="translate(0,0)" fill="rgb(139,205,177)" d="M 1343.14 1303.19 C 1355.25 1304.08 1362.63 1308.84 1373.18 1314.04 C 1373.2 1319.67 1372.7 1328.13 1374.16 1333.48 C 1374.25 1333.81 1374.39 1334.12 1374.5 1334.44 C 1374.18 1334.9 1373.9 1335.4 1373.53 1335.82 L 1372.35 1334.88 C 1371.4 1327.77 1369.86 1320.37 1364.75 1315 C 1364.3 1314.53 1363.84 1314.08 1363.38 1313.61 C 1359.41 1309.58 1353.98 1308.39 1348.47 1307.68 C 1336.03 1306.07 1326.84 1318.6 1318.06 1325.46 C 1324.8 1315.46 1331.22 1307.15 1343.14 1303.19 z"/>
<path transform="translate(0,0)" fill="rgb(254,254,254)" d="M 1396.42 1287.26 C 1397.94 1288.2 1398.98 1288.42 1399.73 1290.13 C 1400.89 1292.75 1400.87 1295.23 1399.87 1297.89 C 1398.06 1302.73 1396.25 1303.96 1391.67 1306.07 L 1390.22 1306.17 C 1389.31 1301.14 1394.34 1291.99 1396.42 1287.26 z"/>
<path transform="translate(0,0)" fill="rgb(174,223,200)" d="M 1346.24 1311.98 C 1348 1312.97 1349.17 1313.92 1350.41 1315.55 C 1351.94 1317.57 1352.06 1319.08 1351.67 1321.45 C 1350.29 1320.58 1348.91 1319.71 1347.33 1319.23 C 1344.47 1318.35 1341.48 1318.76 1338.84 1320.08 C 1338.29 1320.35 1337.76 1320.64 1337.22 1320.93 C 1335.36 1322.13 1333.07 1324.27 1330.86 1324.24 C 1334.7 1319.02 1340.66 1315.11 1346.24 1311.98 z"/>
<path transform="translate(0,0)" fill="rgb(54,131,105)" d="M 474.444 837.153 C 563.665 651.049 699.777 472.095 901.183 401.142 C 1017.73 360.085 1138.94 358.731 1260.11 376.184 C 1323.5 384.908 1385.91 399.638 1446.52 420.175 C 1483.26 432.707 1516.42 447.68 1551.67 463.512 C 1545.16 610.555 1433.77 755.948 1329.38 851.503 C 1306.19 872.722 1281.88 893.676 1256.16 911.784 C 1105.42 1017.93 909.155 1067.03 725.961 1058.47 C 638.723 1054.33 552.48 1038.12 469.693 1010.3 C 454.106 1004.92 435.85 999.291 422.237 990.001 C 420.681 988.913 420.141 988.2 419.337 986.484 C 419.526 975.131 424.24 963.63 427.875 952.977 C 436.538 928.174 446.079 903.687 456.481 879.563 C 462.346 865.785 469.071 852.034 474.156 837.967 L 474.444 837.153 z"/>
<path transform="translate(0,0)" fill="rgb(254,254,254)" d="M 1107.36 387.5 C 1235.24 383.331 1416.8 417.985 1531.14 477.104 C 1528.82 494.97 1524.25 512.843 1519.39 530.171 C 1496.95 610.074 1455.7 681.718 1403.3 745.752 C 1265.89 913.664 1079.55 1010.09 864.238 1031.76 C 765.13 1042.59 664.917 1037.09 567.591 1015.47 C 525.114 1005.7 484.033 992.507 443.043 977.851 C 491.383 832.186 564.866 691.654 671.241 579.794 C 793.31 451.43 930.463 391.917 1107.36 387.5 z"/>
<path transform="translate(0,0)" fill="rgb(54,131,105)" d="M 982.501 449.414 C 982.715 449.395 982.929 449.369 983.143 449.357 C 1052.22 445.44 1124.93 471.661 1176.48 517.37 C 1221.69 557.258 1249.34 613.363 1253.45 673.512 C 1257.38 740.6 1231.2 802.927 1187.09 852.552 C 1141.56 903.788 1071.17 939.906 1002.25 943.913 C 1001.18 944.011 1000.12 944.1 999.052 944.179 C 930.741 949.23 863.2 927.095 811.13 882.59 C 764.264 842.057 733.253 784.874 728.842 722.678 C 724.335 656.979 746.296 592.207 789.83 542.797 C 842.767 482.394 902.895 454.476 982.501 449.414 z"/>
<path transform="translate(0,0)" fill="rgb(254,254,254)" d="M 987.587 466.434 C 1050.46 464.311 1116.58 486.5 1163.93 528.263 C 1207.2 566.321 1233.61 619.989 1237.36 677.494 C 1241 735.726 1216.43 795.05 1178.01 838.064 C 1132.22 889.326 1066.96 923.048 997.864 927.181 C 995.562 927.412 993.254 927.592 990.944 927.72 C 926.818 931.218 861.176 906.219 813.813 863.199 C 772.267 825.462 747.734 767.364 745.305 711.734 C 742.733 652.841 766.303 591.994 805.992 548.683 C 854.866 495.351 915.831 469.643 987.587 466.434 z"/>
<path transform="translate(0,0)" fill="rgb(36,106,82)" d="M 983.64 516.421 C 1028.27 512.012 1080.56 529.896 1115.71 556.957 C 1151.04 584.149 1175.28 623.504 1180.84 668.011 C 1186.79 715.508 1172.42 755.882 1143.35 793.161 C 1109.2 836.961 1058.03 863.282 1003.3 869.859 C 947.653 873.401 900.998 861.636 858.091 825.347 C 826.105 798.169 806.371 759.286 803.317 717.424 C 799.213 666.491 812.776 620.446 846.08 581.434 C 880.836 540.722 931.04 520.437 983.64 516.421 z"/>
<path transform="translate(0,0)" fill="rgb(139,205,177)" d="M 816.485 664.384 C 829.417 614.791 853.11 578.105 898.002 551.785 C 936.177 529.861 980.762 521.823 1024.19 529.034 C 1004.99 536.489 988.433 545.313 979.927 565.338 C 973.641 580.14 974.612 595.722 980.644 610.361 C 993.167 640.752 1020.45 662.388 1050.21 674.615 C 1073.41 684.152 1099.16 688.185 1122.93 678.086 C 1136.19 672.453 1147.84 662.283 1153.2 648.681 C 1156.77 639.595 1156.97 630.22 1155.89 620.652 C 1172.99 653.549 1177.38 695.368 1166.12 730.844 C 1151.18 777.899 1114.95 816.767 1071.4 838.958 C 1024.85 862.682 975.558 867.005 925.492 852.065 L 966.431 829.198 C 974.681 824.601 984.033 820.394 991.303 814.363 C 995.079 811.231 998.514 807.443 999.866 802.612 C 1000.93 798.825 1000.5 794.892 998.441 791.517 C 995.813 787.207 991.114 783.59 986.129 782.588 C 981.842 781.727 977.426 782.681 973.39 784.175 C 966.052 786.891 959.073 790.947 952.076 794.448 C 928.448 806.273 905.512 819.993 881.381 830.731 C 876.673 827.613 872.021 824.374 867.068 821.655 C 884.192 814.073 899.866 805.052 916.321 796.257 C 927.147 790.47 939.261 785.237 949.024 777.754 C 952.399 775.167 955.641 771.907 957.163 767.855 C 958.555 764.147 958.08 760.326 956.255 756.856 C 953.857 752.296 949.811 748.78 944.816 747.385 C 941.21 746.378 937.818 746.498 934.244 747.56 C 920.985 751.503 908.321 760.181 896.35 766.967 C 878.767 777.153 860.981 786.985 843.004 796.459 L 837.474 789.717 C 857.8 778.408 877.998 766.871 898.065 755.108 C 904.834 751.096 912.13 747.686 918.377 742.864 C 922.159 739.945 926.33 736.356 927.641 731.597 C 928.764 727.517 927.135 722.368 924.849 718.98 C 922.228 715.093 917.406 712.423 912.853 711.575 C 900.833 709.337 851.484 740.327 839.263 747.317 C 835.412 749.52 829.122 754.246 824.995 755.325 C 822.913 755.87 821.332 755.186 819.735 754.059 C 820.298 751.226 821.837 750.325 824.207 748.764 C 839.287 738.831 913.254 704.858 915.964 692.162 C 917.023 687.202 915.097 681.935 912.278 677.886 C 909.709 674.197 905.734 671.408 901.259 670.664 C 888.749 668.586 876.012 680.061 865.117 684.55 C 854.271 691.285 824.529 708.494 813.299 712.574 L 812.397 711.952 C 812.563 710.948 812.64 710.152 813.071 709.188 C 815.116 704.611 854.058 685.142 860.837 681.611 L 861.669 681.058 C 874.356 672.74 911.198 657.558 914.552 643.474 C 915.478 639.528 914.772 635.376 912.594 631.959 C 909.773 627.516 904.913 624.666 899.823 623.641 C 895.558 622.781 891.252 623.422 887.168 624.8 C 877.164 628.175 867.791 634.795 858.67 640.023 C 844.555 648.114 830.391 655.91 816.485 664.384 z"/>
<path transform="translate(0,0)" fill="rgb(174,223,200)" d="M 860.837 681.611 L 860.942 683.415 C 854.439 686.86 848.101 690.632 841.73 694.316 C 846.072 692.347 861.568 683.765 864.64 684.089 L 865.117 684.55 C 854.271 691.285 824.529 708.494 813.299 712.574 L 812.397 711.952 C 812.563 710.948 812.64 710.152 813.071 709.188 C 815.116 704.611 854.058 685.142 860.837 681.611 z"/>
<path transform="translate(0,0)" fill="rgb(36,106,82)" d="M 1055.8 684.71 C 1081.92 680.27 1106.77 697.607 1111.62 723.654 C 1116.47 749.7 1099.52 774.82 1073.56 780.076 C 1056.39 783.551 1038.69 777.505 1027.24 764.258 C 1015.78 751.011 1012.36 732.62 1018.28 716.138 C 1024.2 699.657 1038.54 687.645 1055.8 684.71 z"/>
<path transform="translate(0,0)" fill="rgb(254,254,254)" d="M 1060.44 693.853 C 1081.71 691.992 1100.48 707.684 1102.41 728.945 C 1104.35 750.206 1088.72 769.025 1067.46 771.031 C 1046.11 773.047 1027.18 757.327 1025.23 735.963 C 1023.29 714.6 1039.07 695.723 1060.44 693.853 z"/>
<path transform="translate(0,0)" fill="rgb(254,254,254)" d="M 1045.66 534.158 C 1045.91 534.144 1046.17 534.083 1046.42 534.117 C 1070.85 537.416 1108.05 560.791 1124.72 578.046 C 1137.87 591.658 1147.56 608.753 1147.13 628.148 C 1146.86 639.966 1143.19 651.566 1134.32 659.747 C 1122.61 670.539 1105.24 674.185 1089.76 673.623 C 1069.79 671.834 1051.32 665.437 1034.1 655.149 C 1013.33 642.74 992.392 621.69 986.768 597.396 C 983.979 585.831 986.027 573.628 992.439 563.607 C 1004.19 545.15 1025.66 538.943 1045.66 534.158 z"/>
<path transform="translate(0,0)" fill="rgb(254,254,254)" d="M 893.593 630.875 C 895.162 630.78 896.433 630.886 897.998 631.188 C 900.659 631.702 902.768 633.208 903.987 635.673 C 905.108 637.938 905.3 640.92 904.306 643.272 C 900.554 652.153 831.635 686.857 819.402 693.275 L 810.546 697.362 C 811.116 690.312 812.232 683.467 813.49 676.51 C 823.904 669.119 835.588 663.181 846.702 656.884 C 862.241 648.08 877.692 639.007 893.593 630.875 z"/>
<path transform="translate(0,0)" fill="rgb(254,254,254)" d="M 893.795 678.927 C 897.797 678.334 900.814 678.738 904.129 681.083 C 906.651 682.867 907.276 684.606 907.705 687.556 C 906.912 689.909 906.229 691.596 904.286 693.296 C 896.065 700.486 883.873 705.401 874.25 710.568 L 823.495 737.948 L 816.532 741.18 L 812.371 723.363 C 838.455 707.421 866.544 692.801 893.795 678.927 z"/>
<path transform="translate(0,0)" fill="rgb(254,254,254)" d="M 978.578 791.09 C 982.715 790.985 987.452 792.158 990.749 794.715 C 991.553 796.794 991.94 797.383 991.19 799.614 C 989.856 803.585 985.338 806.994 982.083 809.333 C 969.939 818.065 955.114 824.478 941.984 831.783 C 933.152 836.696 923.504 843.521 914.262 847.294 C 911.325 848.493 910.592 847.749 907.711 846.669 C 901.971 843.695 896.436 840.48 890.903 837.139 C 920.387 822.653 948.396 803.96 978.578 791.09 z"/>
<path transform="translate(0,0)" fill="rgb(254,254,254)" d="M 908.573 720.129 C 911.226 720.429 915.173 720.849 917.339 722.605 C 919.481 724.34 919.204 725.267 919.275 727.798 C 917.626 731.643 914.965 734.272 911.689 736.838 C 896.334 748.87 853.323 770.27 834.407 780.038 L 832.969 779.703 C 829.508 775.519 827.424 770.213 825.077 765.343 C 845.01 755.128 891.1 724.155 908.573 720.129 z"/>
<path transform="translate(0,0)" fill="rgb(254,254,254)" d="M 937.849 755.004 C 940.656 755.367 943.111 755.781 945.473 757.452 C 948.025 759.257 948.762 761.006 949.175 764.004 C 947.928 767.243 946.189 768.747 943.447 770.729 C 932.065 778.954 918.092 785.095 905.661 791.742 C 891.09 799.532 876.712 808.121 861.635 814.878 C 857.182 811.428 853.218 807.414 849.18 803.498 C 877.559 789.56 908.959 765.677 937.849 755.004 z"/>
<path transform="translate(0,0)" fill="url(#Gradient1)" d="M 536.233 1378.37 C 503.419 1358.51 478.019 1335.23 463.743 1298.64 C 449.69 1262.62 451.398 1220.56 466.955 1185.3 C 483.651 1147.72 514.624 1118.33 553.03 1103.63 C 595.514 1087.04 642.875 1088.17 684.519 1106.77 C 720.698 1123.04 750.747 1153.09 764.703 1190.52 C 778.753 1228.21 778.795 1269.32 761.85 1306.11 C 743.303 1346.38 707.058 1374.38 665.965 1389.35 C 670.086 1400.1 670.902 1412.56 674.7 1423.77 C 685.941 1431.12 696.408 1439.78 707.325 1447.62 C 723.317 1459.09 739.895 1469.81 756.445 1480.47 C 778.865 1494.83 801.367 1509.06 823.95 1523.17 C 837.947 1531.91 852.327 1540.1 865.658 1549.86 C 870.134 1547.63 874.905 1545.49 879.699 1544.05 C 891.188 1540.6 904.322 1541.06 914.898 1547.11 C 923.16 1551.84 926.927 1558.19 929.179 1567.19 L 966.494 1555.02 C 981.888 1572.01 999.078 1588.01 1018.67 1600.06 C 1024.48 1603.63 1049 1613.47 1050.85 1616.97 C 1051.58 1618.33 1051.05 1618.75 1050.6 1620.08 C 1045.38 1623.2 1035 1623.72 1028.9 1625.18 C 1013.3 1628.91 998.062 1633.91 982.814 1638.84 C 985.719 1645.38 990.191 1651.78 994.095 1657.77 C 1011.81 1684.92 1032.59 1706.91 1059.05 1725.76 C 1070.88 1734.04 1083.81 1742.62 1097.52 1747.4 C 1102.67 1749.47 1124.82 1756.62 1126.72 1760.91 C 1118.41 1768.43 1011.2 1797.81 992.207 1804.42 L 945.954 1818.09 C 938.005 1820.41 929.239 1822.18 921.622 1825.38 C 921.487 1825.66 921.355 1825.93 921.217 1826.2 C 920.065 1828.45 919.455 1829.69 917.091 1830.89 C 913.874 1831.14 912.671 1830.89 909.926 1829.02 C 905.264 1836.73 897.408 1843.57 891.148 1850.07 C 871.848 1870.13 851.524 1889.15 831.739 1908.72 C 824.015 1916.36 814.383 1924.28 808.079 1933.08 C 810.33 1933.73 812.592 1934.35 814.865 1934.92 C 800.672 1935.71 780.42 1931.63 765.999 1929.98 C 711.956 1923.78 577.4 1908.25 535.636 1881.33 C 535.3 1881.11 534.972 1880.89 534.639 1880.66 L 533.934 1890.35 C 532.402 1893.15 530.9 1896.31 528.626 1898.58 C 526.192 1901.02 523.341 1901.62 520.009 1901.53 C 498.988 1900.92 453.503 1877.79 439.821 1862.07 C 437.073 1858.92 436.761 1856.79 436.995 1852.7 C 443 1841.44 450.845 1831.22 457.703 1820.48 C 463.755 1811 468.719 1800.81 473.322 1790.55 C 484.552 1765.53 491.631 1740.6 475.267 1715.84 C 464.806 1700.01 451.624 1686.65 443.138 1669.44 C 437.068 1657.13 434.296 1644.14 431.349 1630.84 L 421.703 1621.04 C 423.04 1601.63 429.611 1581.22 435.768 1562.8 C 457.665 1495.68 491.72 1433.17 536.233 1378.37 z"/>
<path transform="translate(0,0)" fill="rgb(216,239,226)" d="M 668.245 1584.11 C 696.377 1600.16 724.074 1616.2 753.192 1630.47 C 759.269 1648.48 768.711 1666.02 777.53 1682.83 C 800.111 1725.86 828.439 1767.68 866.346 1798.78 C 880.072 1810.05 895.009 1819.46 909.926 1829.02 C 905.264 1836.73 897.408 1843.57 891.148 1850.07 C 871.848 1870.13 851.524 1889.15 831.739 1908.72 C 824.015 1916.36 814.383 1924.28 808.079 1933.08 C 810.33 1933.73 812.592 1934.35 814.865 1934.92 C 800.672 1935.71 780.42 1931.63 765.999 1929.98 C 711.956 1923.78 577.4 1908.25 535.636 1881.33 C 535.3 1881.11 534.972 1880.89 534.639 1880.66 L 533.934 1890.35 C 532.989 1885.77 533.035 1881.05 532.882 1876.39 C 547.929 1880.77 562.763 1883.48 578.478 1883.62 C 587.927 1883.7 603.047 1883.69 609.919 1876.27 C 612.109 1873.91 612.95 1871 612.677 1867.84 C 611.68 1856.28 598.903 1846.52 590.83 1839.44 C 600.282 1823.7 605.489 1804.61 610.934 1787.16 C 623.783 1745.97 635.655 1704.61 640.208 1661.54 C 644.701 1660.27 650.897 1659.1 654.61 1656.14 C 662.596 1649.76 667.241 1595.83 668.245 1584.11 z"/>
<path transform="translate(0,0)" fill="rgb(254,254,254)" d="M 596.182 1108.21 C 672.064 1098.08 741.743 1151.5 751.656 1227.41 C 761.57 1303.32 707.947 1372.85 632.009 1382.55 C 556.374 1392.21 487.184 1338.85 477.31 1263.24 C 467.436 1187.63 520.603 1118.29 596.182 1108.21 z"/>
<path transform="translate(0,0)" fill="rgb(54,131,105)" d="M 702.316 1166.12 C 704.532 1165.84 706.959 1165.43 709.167 1165.9 C 714.859 1167.11 719.742 1172.34 722.662 1177.08 C 735.246 1197.53 735.631 1227.52 730.445 1250.23 C 728.102 1260.49 724.684 1267.98 715.569 1273.68 C 713.386 1274.09 711.069 1274.67 708.84 1274.43 C 703.773 1273.88 699.479 1270.35 696.608 1266.34 C 684.54 1249.5 684.078 1217.34 686.962 1197.62 C 688.705 1185.7 692.233 1173.55 702.316 1166.12 z"/>
<path transform="translate(0,0)" fill="rgb(254,254,254)" d="M 706.603 1176.43 C 708.195 1176.7 709.201 1177.01 710.491 1178.08 C 713.008 1180.19 714.433 1183.57 714.684 1186.8 C 715.241 1193.97 712.865 1199.27 708.437 1204.66 C 707.214 1204.08 706.108 1203.49 705.089 1202.58 C 701.894 1199.77 700.075 1195.72 700.101 1191.46 C 700.108 1185.19 702.42 1180.91 706.603 1176.43 z"/>
<path transform="translate(0,0)" fill="rgb(36,106,82)" d="M 664.415 1291.5 C 671.74 1294.79 675.958 1302.88 684.419 1304.66 C 691.239 1306.09 700.717 1301.15 706.91 1304.49 C 706.078 1307.38 704.058 1308.49 701.868 1310.46 C 697.228 1312.77 692.103 1313.94 686.92 1313.87 C 678.789 1313.82 667.908 1311.05 662.158 1304.91 C 660.536 1303.18 659.474 1301.12 659.725 1298.69 C 660.104 1295.04 661.929 1293.8 664.415 1291.5 z"/>
<path transform="translate(0,0)" fill="rgb(254,254,254)" d="M 961.439 1620.07 C 961.58 1620.08 961.734 1620.05 961.861 1620.11 C 965.228 1621.73 966.042 1629.99 967.595 1633.61 C 985.113 1674.42 1020.3 1713.75 1057.71 1737.58 C 1072.47 1746.98 1088.12 1754.09 1104.34 1760.49 C 1061.99 1771.58 1019.59 1784.17 977.839 1797.32 C 955.59 1804.33 933.572 1812.69 911.045 1818.72 C 899.763 1809.71 887.633 1801.84 876.416 1792.66 C 820.99 1744.21 800.452 1696.55 764.896 1635.3 C 779.036 1645.02 793.563 1654.09 807.796 1663.65 C 818.384 1670.77 828.491 1678.71 839.646 1684.92 C 852.222 1683.75 872.293 1678.43 881.762 1669.85 C 883.853 1667.96 885.49 1665.48 885.251 1662.53 C 884.76 1656.49 875.507 1649.88 871.318 1646.07 C 902.058 1640.37 931.606 1629.11 961.439 1620.07 z"/>
<path transform="translate(0,0)" fill="rgb(254,254,254)" d="M 554.611 1387.77 C 563.196 1388.08 572.477 1392.02 580.95 1393.89 C 603.249 1398.81 625.667 1397.36 648.082 1394.3 C 657.48 1417.16 661.081 1441.57 664.565 1465.85 C 646.239 1448.24 627.362 1429.4 606.713 1414.51 C 595.498 1406.43 583.139 1399.76 568.826 1402.44 C 558.422 1404.38 549.748 1410.54 544.066 1419.42 C 536.603 1431.08 534.55 1445.7 537.807 1459.07 C 549.171 1505.73 612.925 1547.71 652.388 1571.31 C 650.771 1596.06 647.386 1620.65 642.259 1644.91 C 575.216 1661.9 499.776 1648.28 440.063 1614.47 C 456.543 1552.15 482.165 1492.61 516.094 1437.79 C 527.012 1419.9 538.243 1401.24 554.611 1387.77 z"/>
<path transform="translate(0,0)" fill="rgb(254,254,254)" d="M 452.739 1643.26 C 466.326 1648.55 479.905 1654.14 493.928 1658.18 C 535.817 1670.22 585.18 1674.19 627.848 1665.32 C 620.304 1697.2 611.169 1729.47 601.156 1760.67 C 596.67 1774.52 591.973 1788.29 587.068 1802 C 582.727 1813.86 571.88 1833.29 571.492 1844.86 C 574.994 1852.92 585.641 1857.1 592.244 1862.65 L 592.268 1863.94 C 591.058 1864.84 589.945 1865.57 588.464 1865.97 C 571.04 1870.65 537.881 1858.13 522.426 1849.51 C 545.585 1820.9 563.434 1788.37 575.129 1753.47 C 578.438 1741.79 582.917 1724.24 578.569 1712.29 C 577.769 1710.09 577.866 1709.98 575.652 1708.99 C 569.619 1712.95 563.745 1739.28 560.681 1747.2 C 551.274 1771.53 537.447 1795.95 522.634 1817.44 C 516.033 1827.02 507.645 1836.56 501.923 1846.58 C 496.933 1855.32 515.547 1872.23 518.481 1881.88 L 517.682 1882.74 C 503.655 1884.79 470.208 1862.63 457.785 1854.43 C 470.03 1837.46 481.256 1818.03 490.14 1799.06 C 505.408 1766.47 510.097 1731.94 488.562 1700.84 C 474.329 1680.29 461.54 1667.7 452.739 1643.26 z"/>
<path transform="translate(0,0)" fill="rgb(254,254,254)" d="M 571.584 1418.13 C 578.916 1417.72 585.296 1419.9 591.608 1423.62 C 606.687 1432.52 620.646 1447.18 633.151 1459.46 C 659.613 1485.43 684.337 1513.2 710.986 1538.93 C 737.585 1564.61 764.902 1590.5 796.333 1610.2 C 791.643 1615.37 788.165 1621.43 783.865 1626.91 L 781.743 1626.67 C 757.078 1615.51 732.89 1600.49 709.653 1586.61 C 666.231 1560.67 575.53 1509.76 557.814 1462.04 C 553.976 1451.7 552.678 1438.91 557.824 1428.74 C 560.945 1422.58 565.163 1420.03 571.584 1418.13 z"/>
<path transform="translate(0,0)" fill="rgb(254,254,254)" d="M 951.666 1573.25 C 953.438 1575.09 958.161 1603.84 959.702 1609 C 929.301 1621.01 896.542 1629.04 864.73 1636.29 C 857.482 1629.65 850.904 1618.51 843.524 1613.26 C 841.161 1611.58 840.602 1611.98 837.961 1612.57 C 836.067 1614.39 835.535 1614.69 835.575 1617.5 C 835.751 1629.58 864.212 1654.9 873.072 1663.23 L 861.754 1667.54 C 855.758 1669.69 849.733 1671.46 843.593 1673.14 C 826.419 1661.15 809.478 1643.62 794.956 1628.49 C 801.512 1619.42 809.95 1613.09 820.2 1608.76 C 833.874 1602.98 850.161 1603.74 864.57 1599.94 C 893.955 1592.2 922.432 1581.5 951.666 1573.25 z"/>
<path transform="translate(0,0)" fill="rgb(254,254,254)" d="M 676.86 1447.29 C 691.996 1455.25 708.301 1470.11 723.115 1479.99 C 765.889 1508.51 809.011 1536.05 855.652 1557.86 L 849.838 1567.48 L 847.569 1570.32 C 846.649 1570.49 846.342 1570.59 845.29 1570.5 C 830.224 1569.21 744.461 1542.96 732.737 1534.71 C 724.503 1528.92 717.964 1520.74 710.897 1513.62 C 700.227 1502.87 689.274 1492.34 679.003 1481.2 C 678.807 1469.94 677.432 1458.56 676.86 1447.29 z"/>
<path transform="translate(0,0)" fill="rgb(254,254,254)" d="M 963.597 1570.55 C 968.062 1572.51 972.704 1577.39 976.493 1580.54 C 991.746 1593.2 1006.83 1607.64 1025.54 1614.86 L 1013.7 1618.5 C 1001.88 1621.53 990.22 1625.26 978.541 1628.78 C 971.992 1613.65 962.929 1586.72 963.597 1570.55 z"/>
<path transform="translate(0,0)" fill="rgb(216,239,226)" d="M 765.204 1566.86 C 776.116 1568.51 787.181 1572.33 797.965 1574.85 C 817.343 1579.38 837.326 1582.98 856.264 1589.12 C 852.286 1590.37 848.232 1591.4 844.207 1592.49 C 831.208 1595.16 819.411 1598.02 807.256 1603.57 C 793.474 1591.07 778.883 1579.47 765.204 1566.86 z"/>
<path transform="translate(0,0)" fill="rgb(254,254,254)" d="M 884.628 1554.16 C 892.901 1553.22 901.836 1553.99 909.568 1557.32 C 912.386 1558.54 913.573 1559.74 914.625 1562.57 C 912.856 1567 907.078 1568.13 904.998 1572.62 L 906.64 1574.61 C 902.866 1578.02 891.051 1579.52 885.857 1580.84 C 879.196 1582.75 872.582 1584.38 865.793 1585.76 C 862.097 1582 859.396 1578.43 856.582 1573.99 C 864.379 1564.93 873.107 1557.8 884.628 1554.16 z"/>
<path transform="translate(0,0)" fill="rgb(174,223,200)" d="M 887.602 86.5386 L 892.601 87.3744 L 892.713 88.4948 C 868.533 113.667 841.333 136.183 815.618 159.784 L 635.518 323.528 C 609.929 347.439 584.548 371.572 559.379 395.925 C 547.131 407.591 534.406 418.764 522.253 430.528 C 511.164 441.263 500.599 452.531 489.42 463.18 C 413.424 534.304 337.884 605.915 262.806 678.008 L 153.017 780.765 C 128.321 803.531 101.778 825.854 79.8129 851.308 C 79.8377 846.134 79.9925 840.926 79.8296 835.756 C 80.749 797.452 84.2287 758.776 88.8927 720.761 C 105.998 581.338 147.298 441.287 238.22 331.395 C 269.396 293.714 304.799 262.192 345.006 234.382 C 427.016 177.657 507.031 149.412 603.185 126.416 C 654.792 114.179 707.01 104.675 759.619 97.9431 C 802.239 92.7101 844.914 90.6248 887.602 86.5386 z"/>
<path transform="translate(0,0)" fill="rgb(216,239,226)" d="M 887.602 86.5386 C 904.224 83.885 921.586 84.1637 938.376 83.558 C 988.704 81.7426 1039.77 81.7657 1090 85.7105 C 1097.48 86.2985 1106.22 86.1926 1113.46 88.045 C 1096.73 101.049 1081.2 115.591 1064.9 129.134 C 1044.68 145.776 1024.55 162.519 1004.49 179.363 C 994.817 187.464 980.855 196.829 973.614 207.05 C 820.925 217.454 678.726 288.45 578.654 404.243 C 506.588 487.334 460.081 583.915 436.227 691.183 C 429.604 693.194 423.116 700.056 418.083 704.682 C 389.232 731.199 361.546 759.307 333.411 786.598 L 180.584 934.365 C 153.075 960.904 125.374 986.958 98.3053 1013.96 C 94.2554 1018 87.893 1021.88 85.086 1026.82 C 83.3638 1029.85 83.7642 1033.19 83.8898 1036.54 C 79.7997 1019.7 76.2757 856.808 79.8296 835.756 C 79.9925 840.926 79.8377 846.134 79.8129 851.308 C 101.778 825.854 128.321 803.531 153.017 780.765 L 262.806 678.008 C 337.884 605.915 413.424 534.304 489.42 463.18 C 500.599 452.531 511.164 441.263 522.253 430.528 C 534.406 418.764 547.131 407.591 559.379 395.925 C 584.548 371.572 609.929 347.439 635.518 323.528 L 815.618 159.784 C 841.333 136.183 868.533 113.667 892.713 88.4948 L 892.601 87.3744 L 887.602 86.5386 z"/>
<path transform="translate(0,0)" fill="rgb(174,223,200)" d="M 436.227 691.183 C 428.688 728.979 421.228 766.244 418.519 804.764 C 418.043 811.538 416.885 818.995 417.722 825.742 C 419.942 822.883 423.816 796.533 425.539 790.524 C 429.572 788.623 432.297 789.105 436.379 790.677 C 452.557 796.908 467.041 809.18 481.088 819.139 C 478.939 823.793 473.405 832.439 474.444 837.153 L 474.156 837.967 C 469.071 852.034 462.346 865.785 456.481 879.563 C 446.079 903.687 436.538 928.174 427.875 952.977 C 424.24 963.63 419.526 975.131 419.337 986.484 C 420.141 988.2 420.681 988.913 422.237 990.001 C 410.646 1005.45 394.789 1018.67 380.858 1032.07 L 322.502 1089.14 L 187.65 1221.86 C 164.388 1244.63 141.523 1268.06 117.472 1289.99 C 112.955 1262.74 107.432 1235.61 103.242 1208.31 C 94.4454 1151.34 87.9894 1094.04 83.8898 1036.54 C 83.7642 1033.19 83.3638 1029.85 85.086 1026.82 C 87.893 1021.88 94.2554 1018 98.3053 1013.96 C 125.374 986.958 153.075 960.904 180.584 934.365 L 333.411 786.598 C 361.546 759.307 389.232 731.199 418.083 704.682 C 423.116 700.056 429.604 693.194 436.227 691.183 z"/>
<path transform="translate(0,0)" fill="rgb(174,223,200)" d="M 1113.46 88.045 C 1194.72 92.3955 1275.11 108.789 1353.98 128.094 C 1371.2 132.31 1387.99 138.347 1405.2 142.38 C 1387.26 160.557 1267.62 254.999 1263.83 263.859 C 1188.15 236.538 1112.51 212.468 1031.57 207.544 C 1012.28 206.37 992.93 206.815 973.614 207.05 C 980.855 196.829 994.817 187.464 1004.49 179.363 C 1024.55 162.519 1044.68 145.776 1064.9 129.134 C 1081.2 115.591 1096.73 101.049 1113.46 88.045 z"/>
<path transform="translate(0,0)" fill="rgb(54,131,105)" d="M 973.614 207.05 C 992.93 206.815 1012.28 206.37 1031.57 207.544 C 1112.51 212.468 1188.15 236.538 1263.83 263.859 C 1283.85 272.602 1420.57 337.684 1427.33 353.23 L 1424.43 351.777 L 1423.97 353.212 L 1423.85 352.034 C 1404.04 344.165 1385.02 334.286 1365.56 325.59 C 1339.24 313.829 1312.24 302.901 1285.4 292.391 C 1243.76 276.158 1201.1 262.651 1157.71 251.955 C 1027.06 219.278 914.349 221.918 789.771 275.63 C 671.368 326.68 576.66 420.272 514.906 532.317 C 503.209 553.541 491.856 575.58 482.907 598.113 C 462.679 649.048 448.259 692.762 435.517 746.162 C 432.017 760.829 428 775.659 425.539 790.524 C 423.816 796.533 419.942 822.883 417.722 825.742 C 416.885 818.995 418.043 811.538 418.519 804.764 C 421.228 766.244 428.688 728.979 436.227 691.183 C 460.081 583.915 506.588 487.334 578.654 404.243 C 678.726 288.45 820.925 217.454 973.614 207.05 z"/>
<path transform="translate(0,0)" fill="rgb(174,223,200)" d="M 1641.18 1069.66 C 1666.58 1042.2 1690.46 1012.97 1715.41 985.038 L 1876.01 808.642 C 1905.73 776.309 1934.7 738.922 1968.3 710.79 C 1968.24 727.986 1968.77 745.418 1966.06 762.454 C 1937.94 790.759 1911.79 820.552 1884.91 849.999 L 1761.95 985.794 C 1728.49 1023.46 1695.24 1061.64 1659.94 1097.6 C 1653.93 1088.07 1647.82 1078.77 1641.18 1069.66 z"/>
<path transform="translate(0,0)" fill="rgb(174,223,200)" d="M 1212.17 1569.05 C 1213.34 1584.72 1215.19 1600.28 1219.35 1615.47 C 1200.99 1629.41 1180.88 1654.01 1164.57 1671.07 C 1144.76 1691.8 1123.64 1711.61 1104.9 1733.31 C 1102.35 1736.27 1098.31 1740.3 1097.72 1744.24 C 1097.54 1745.45 1097.56 1746.08 1097.52 1747.4 C 1083.81 1742.62 1070.88 1734.04 1059.05 1725.76 C 1066.62 1720.66 1073.77 1711.71 1080.42 1705.34 C 1111.06 1676 1140.31 1645.65 1169.64 1615.02 C 1184.1 1599.92 1200.01 1586.19 1212.17 1569.05 z"/>
</svg>